<?xml version="1.0" encoding="UTF-8"?>
<!-- Generator: visioncortex VTracer -->
<svg id="svg" version="1.1" xmlns="http://www.w3.org/2000/svg" style="display: block;" viewBox="0 0 600 600"><path d="M0,0 L19,0 L19,1 L24,1 L24,2 L26,2 L26,1 L27,1 L27,3 L30,3 L30,4 L32,4 L32,5 L34,5 L34,6 L36,6 L36,7 L38,7 L38,8 L40,8 L40,9 L41,9 L41,10 L42,10 L42,11 L44,11 L44,12 L45,12 L45,13 L46,13 L46,14 L47,14 L47,15 L48,15 L48,16 L49,16 L49,17 L50,17 L50,18 L51,18 L51,19 L52,19 L52,20 L53,20 L53,21 L54,21 L54,22 L55,22 L55,24 L56,24 L56,25 L58,25 L58,26 L57,26 L57,27 L58,27 L58,28 L59,28 L59,30 L60,30 L60,32 L61,32 L61,34 L62,34 L62,37 L63,37 L63,40 L64,40 L64,43 L65,43 L65,49 L66,49 L66,65 L65,65 L65,70 L64,70 L64,74 L63,74 L63,76 L62,76 L62,79 L61,79 L61,81 L60,81 L60,83 L59,83 L59,85 L58,85 L58,87 L57,87 L57,88 L56,88 L56,90 L55,90 L55,91 L54,91 L54,92 L53,92 L53,93 L52,93 L52,94 L51,94 L51,96 L50,96 L50,97 L49,97 L49,98 L48,98 L48,99 L46,99 L46,100 L45,100 L45,101 L44,101 L44,102 L43,102 L43,103 L41,103 L41,104 L40,104 L40,105 L38,105 L38,106 L36,106 L36,107 L35,107 L35,108 L34,108 L34,109 L30,109 L30,110 L28,110 L28,111 L29,111 L29,112 L30,112 L30,114 L31,114 L31,115 L32,115 L32,116 L33,116 L33,117 L34,117 L34,118 L35,118 L35,119 L36,119 L36,120 L37,120 L37,121 L38,121 L38,122 L40,122 L40,123 L41,123 L41,124 L42,124 L42,125 L43,125 L43,126 L44,126 L44,127 L45,127 L45,128 L46,128 L46,129 L48,129 L48,130 L49,130 L49,131 L50,131 L50,132 L51,132 L51,131 L52,131 L52,132 L53,132 L53,134 L54,134 L54,135 L56,135 L56,136 L57,136 L57,137 L60,137 L60,138 L61,138 L61,139 L62,139 L62,140 L64,140 L64,141 L66,141 L66,142 L68,142 L68,143 L70,143 L70,144 L72,144 L72,145 L74,145 L74,146 L77,146 L77,147 L79,147 L79,148 L82,148 L82,149 L85,149 L85,150 L89,150 L89,151 L93,151 L93,152 L97,152 L97,151 L98,151 L98,153 L107,153 L107,154 L117,154 L117,153 L124,153 L124,152 L127,152 L127,151 L128,151 L128,152 L130,152 L130,151 L134,151 L134,150 L137,150 L137,149 L139,149 L139,148 L143,148 L143,147 L146,147 L146,146 L148,146 L148,145 L147,145 L147,144 L149,144 L149,145 L150,145 L150,144 L152,144 L152,143 L154,143 L154,142 L157,142 L157,141 L158,141 L158,140 L160,140 L160,139 L162,139 L162,138 L163,138 L163,137 L165,137 L165,136 L166,136 L166,135 L168,135 L168,134 L169,134 L169,133 L171,133 L171,132 L172,132 L172,131 L173,131 L173,130 L175,130 L175,129 L176,129 L176,128 L177,128 L177,127 L178,127 L178,126 L179,126 L179,125 L181,125 L181,124 L182,124 L182,123 L183,123 L183,122 L184,122 L184,121 L185,121 L185,120 L186,120 L186,119 L187,119 L187,118 L188,118 L188,117 L189,117 L189,116 L190,116 L190,115 L191,115 L191,114 L192,114 L192,113 L193,113 L193,111 L194,111 L194,110 L192,110 L192,109 L190,109 L190,108 L188,108 L188,107 L186,107 L186,106 L184,106 L184,105 L183,105 L183,104 L181,104 L181,103 L180,103 L180,102 L178,102 L178,101 L177,101 L177,100 L176,100 L176,99 L175,99 L175,98 L173,98 L173,96 L172,96 L172,95 L171,95 L171,94 L170,94 L170,93 L169,93 L169,92 L168,92 L168,91 L167,91 L167,89 L166,89 L166,88 L165,88 L165,86 L164,86 L164,84 L163,84 L163,83 L162,83 L162,80 L161,80 L161,78 L160,78 L160,76 L158,76 L158,75 L159,75 L159,73 L157,73 L157,72 L158,72 L158,69 L157,69 L157,63 L156,63 L156,50 L157,50 L157,44 L158,44 L158,40 L159,40 L159,37 L160,37 L160,34 L161,34 L161,32 L162,32 L162,30 L163,30 L163,28 L164,28 L164,26 L165,26 L165,25 L166,25 L166,24 L167,24 L167,22 L168,22 L168,21 L169,21 L169,20 L170,20 L170,19 L171,19 L171,18 L172,18 L172,17 L173,17 L173,16 L174,16 L174,15 L175,15 L175,14 L176,14 L176,13 L177,13 L177,12 L178,12 L178,11 L180,11 L180,10 L181,10 L181,9 L183,9 L183,8 L184,8 L184,7 L186,7 L186,6 L188,6 L188,5 L190,5 L190,4 L192,4 L192,3 L195,3 L195,2 L198,2 L198,1 L199,1 L199,0 L200,0 L200,1 L203,1 L203,0 L222,0 L222,1 L226,1 L226,2 L227,2 L227,1 L229,1 L229,2 L230,2 L230,3 L233,3 L233,4 L235,4 L235,5 L237,5 L237,6 L239,6 L239,7 L241,7 L241,8 L242,8 L242,9 L244,9 L244,10 L245,10 L245,11 L246,11 L246,12 L248,12 L248,13 L249,13 L249,14 L250,14 L250,15 L251,15 L251,16 L252,16 L252,17 L253,17 L253,18 L254,18 L254,19 L255,19 L255,20 L256,20 L256,22 L257,22 L257,23 L258,23 L258,24 L259,24 L259,26 L260,26 L260,28 L261,28 L261,29 L262,29 L262,31 L263,31 L263,33 L264,33 L264,36 L265,36 L265,38 L266,38 L266,42 L267,42 L267,46 L268,46 L268,67 L267,67 L267,71 L266,71 L266,75 L265,75 L265,77 L264,77 L264,80 L263,80 L263,82 L262,82 L262,84 L261,84 L261,85 L260,85 L260,87 L259,87 L259,88 L260,88 L260,89 L258,89 L258,90 L257,90 L257,91 L256,91 L256,93 L255,93 L255,94 L254,94 L254,95 L253,95 L253,96 L252,96 L252,97 L251,97 L251,98 L250,98 L250,99 L249,99 L249,100 L248,100 L248,101 L246,101 L246,102 L245,102 L245,103 L244,103 L244,104 L242,104 L242,105 L240,105 L240,106 L239,106 L239,107 L237,107 L237,108 L235,108 L235,109 L234,109 L234,110 L230,110 L230,111 L227,111 L227,112 L223,112 L223,113 L215,113 L215,114 L211,114 L211,113 L210,113 L210,114 L209,114 L209,115 L208,115 L208,116 L207,116 L207,118 L206,118 L206,119 L205,119 L205,120 L204,120 L204,121 L203,121 L203,123 L202,123 L202,124 L201,124 L201,125 L200,125 L200,126 L199,126 L199,127 L198,127 L198,129 L197,129 L197,130 L196,130 L196,131 L195,131 L195,132 L194,132 L194,133 L196,133 L196,132 L198,132 L198,131 L201,131 L201,130 L204,130 L204,129 L205,129 L205,128 L206,128 L206,129 L211,129 L211,128 L217,128 L217,127 L218,127 L218,128 L219,128 L219,129 L224,129 L224,130 L227,130 L227,131 L230,131 L230,132 L229,132 L229,136 L228,136 L228,137 L227,137 L227,139 L226,139 L226,140 L225,140 L225,141 L224,141 L224,142 L223,142 L223,143 L222,143 L222,144 L220,144 L220,145 L219,145 L219,146 L217,146 L217,147 L216,147 L216,148 L213,148 L213,149 L211,149 L211,151 L210,151 L210,150 L208,150 L208,151 L206,151 L206,152 L205,152 L205,151 L204,151 L204,152 L188,152 L188,153 L187,153 L187,151 L185,151 L185,152 L183,152 L183,150 L181,150 L181,151 L180,151 L180,150 L178,150 L178,151 L177,151 L177,152 L175,152 L175,153 L174,153 L174,156 L173,156 L173,155 L172,155 L172,156 L170,156 L170,157 L169,157 L169,158 L168,158 L168,159 L167,159 L167,160 L166,160 L166,161 L164,161 L164,162 L163,162 L163,163 L162,163 L162,164 L160,164 L160,165 L159,165 L159,166 L158,166 L158,167 L157,167 L157,168 L156,168 L156,169 L154,169 L154,170 L153,170 L153,172 L151,172 L151,173 L150,173 L150,175 L149,175 L149,176 L148,176 L148,177 L147,177 L147,178 L146,178 L146,180 L145,180 L145,181 L144,181 L144,183 L143,183 L143,185 L142,185 L142,188 L141,188 L141,189 L140,189 L140,192 L139,192 L139,196 L138,196 L138,205 L137,205 L137,207 L138,207 L138,208 L137,208 L137,211 L138,211 L138,218 L139,218 L139,219 L138,219 L138,222 L139,222 L139,226 L140,226 L140,230 L141,230 L141,233 L142,233 L142,236 L143,236 L143,238 L144,238 L144,240 L145,240 L145,242 L146,242 L146,244 L147,244 L147,245 L148,245 L148,247 L149,247 L149,248 L150,248 L150,249 L151,249 L151,250 L153,250 L153,252 L154,252 L154,253 L155,253 L155,254 L156,254 L156,255 L157,255 L157,256 L158,256 L158,257 L160,257 L160,258 L161,258 L161,259 L163,259 L163,260 L165,260 L165,261 L167,261 L167,262 L169,262 L169,263 L171,263 L171,264 L174,264 L174,265 L175,265 L175,264 L176,264 L176,265 L178,265 L178,266 L182,266 L182,267 L185,267 L185,268 L187,268 L187,269 L186,269 L186,270 L187,270 L187,273 L186,273 L186,275 L185,275 L185,276 L184,276 L184,277 L181,277 L181,279 L180,279 L180,278 L163,278 L163,277 L59,277 L59,278 L41,278 L41,277 L38,277 L38,276 L37,276 L37,275 L36,275 L36,269 L37,269 L37,268 L38,268 L38,267 L40,267 L40,266 L44,266 L44,265 L48,265 L48,264 L51,264 L51,263 L53,263 L53,262 L55,262 L55,261 L57,261 L57,260 L59,260 L59,259 L61,259 L61,258 L62,258 L62,257 L64,257 L64,256 L65,256 L65,255 L66,255 L66,254 L67,254 L67,253 L68,253 L68,252 L69,252 L69,250 L71,250 L71,249 L72,249 L72,248 L73,248 L73,247 L74,247 L74,245 L75,245 L75,244 L76,244 L76,242 L77,242 L77,241 L78,241 L78,239 L79,239 L79,237 L80,237 L80,235 L79,235 L79,234 L81,234 L81,231 L82,231 L82,228 L83,228 L83,224 L82,224 L82,223 L84,223 L84,216 L85,216 L85,201 L84,201 L84,195 L83,195 L83,191 L82,191 L82,188 L81,188 L81,186 L80,186 L80,185 L79,185 L79,182 L78,182 L78,181 L76,181 L76,180 L77,180 L77,179 L76,179 L76,178 L75,178 L75,176 L74,176 L74,175 L73,175 L73,174 L71,174 L71,172 L70,172 L70,171 L69,171 L69,170 L68,170 L68,169 L67,169 L67,168 L66,168 L66,167 L65,167 L65,166 L63,166 L63,165 L62,165 L62,164 L61,164 L61,163 L60,163 L60,162 L58,162 L58,161 L57,161 L57,160 L56,160 L56,159 L55,159 L55,158 L53,158 L53,157 L52,157 L52,156 L51,156 L51,155 L49,155 L49,154 L48,154 L48,153 L47,153 L47,152 L46,152 L46,151 L44,151 L44,150 L43,150 L43,149 L42,149 L42,150 L40,150 L40,151 L35,151 L35,152 L30,152 L30,153 L29,153 L29,152 L18,152 L18,151 L14,151 L14,150 L11,150 L11,149 L8,149 L8,148 L6,148 L6,147 L4,147 L4,146 L3,146 L3,145 L1,145 L1,144 L0,144 L0,143 L-1,143 L-1,142 L-2,142 L-2,141 L-3,141 L-3,140 L-4,140 L-4,139 L-5,139 L-5,138 L-6,138 L-6,136 L-7,136 L-7,135 L-8,135 L-8,132 L-7,132 L-7,131 L-5,131 L-5,130 L-3,130 L-3,129 L3,129 L3,128 L11,128 L11,129 L17,129 L17,130 L19,130 L19,129 L20,129 L20,130 L21,130 L21,131 L24,131 L24,132 L26,132 L26,133 L28,133 L28,132 L27,132 L27,131 L26,131 L26,130 L25,130 L25,129 L24,129 L24,128 L23,128 L23,126 L22,126 L22,125 L21,125 L21,124 L20,124 L20,123 L19,123 L19,121 L18,121 L18,120 L17,120 L17,119 L16,119 L16,117 L15,117 L15,116 L14,116 L14,115 L13,115 L13,114 L11,114 L11,115 L10,115 L10,114 L7,114 L7,113 L0,113 L0,112 L-1,112 L-1,114 L-2,114 L-2,112 L-5,112 L-5,111 L-8,111 L-8,110 L-10,110 L-10,109 L-13,109 L-13,108 L-14,108 L-14,107 L-16,107 L-16,106 L-18,106 L-18,105 L-20,105 L-20,104 L-21,104 L-21,103 L-23,103 L-23,102 L-24,102 L-24,101 L-25,101 L-25,100 L-26,100 L-26,99 L-28,99 L-28,97 L-30,97 L-30,95 L-31,95 L-31,94 L-32,94 L-32,93 L-33,93 L-33,92 L-34,92 L-34,91 L-35,91 L-35,89 L-36,89 L-36,88 L-37,88 L-37,86 L-38,86 L-38,85 L-39,85 L-39,83 L-40,83 L-40,81 L-41,81 L-41,78 L-42,78 L-42,76 L-43,76 L-43,73 L-44,73 L-44,69 L-45,69 L-45,64 L-46,64 L-46,48 L-45,48 L-45,43 L-44,43 L-44,39 L-43,39 L-43,36 L-42,36 L-42,34 L-41,34 L-41,32 L-40,32 L-40,30 L-39,30 L-39,28 L-38,28 L-38,26 L-37,26 L-37,25 L-36,25 L-36,23 L-35,23 L-35,22 L-34,22 L-34,21 L-33,21 L-33,20 L-32,20 L-32,18 L-31,18 L-31,17 L-30,17 L-30,16 L-29,16 L-29,15 L-28,15 L-28,14 L-27,14 L-27,13 L-25,13 L-25,12 L-24,12 L-24,11 L-23,11 L-23,10 L-21,10 L-21,9 L-20,9 L-20,8 L-18,8 L-18,7 L-17,7 L-17,6 L-15,6 L-15,5 L-13,5 L-13,4 L-10,4 L-10,3 L-8,3 L-8,2 L-6,2 L-6,1 L-5,1 L-5,2 L-4,2 L-4,1 L0,1 Z M193,133 L193,134 L194,134 L194,133 Z " transform="translate(189,155)" style="fill: #2D4436;"/><path d="M0,0 L13,0 L13,1 L17,1 L17,0 L18,0 L18,1 L19,1 L19,2 L22,2 L22,3 L26,3 L26,4 L28,4 L28,5 L30,5 L30,6 L32,6 L32,7 L34,7 L34,8 L36,8 L36,9 L37,9 L37,10 L40,10 L40,12 L42,12 L42,13 L43,13 L43,14 L44,14 L44,15 L45,15 L45,16 L46,16 L46,17 L47,17 L47,18 L48,18 L48,19 L49,19 L49,20 L51,20 L51,22 L54,22 L54,23 L53,23 L53,25 L54,25 L54,26 L55,26 L55,28 L56,28 L56,29 L57,29 L57,31 L58,31 L58,33 L59,33 L59,35 L60,35 L60,38 L61,38 L61,40 L62,40 L62,44 L63,44 L63,49 L64,49 L64,67 L63,67 L63,72 L62,72 L62,76 L61,76 L61,78 L60,78 L60,82 L59,82 L59,83 L58,83 L58,85 L57,85 L57,87 L56,87 L56,89 L55,89 L55,90 L54,90 L54,92 L53,92 L53,93 L52,93 L52,94 L51,94 L51,95 L50,95 L50,97 L49,97 L49,98 L48,98 L48,99 L47,99 L47,100 L46,100 L46,101 L45,101 L45,102 L46,102 L46,103 L44,103 L44,102 L43,102 L43,103 L42,103 L42,104 L41,104 L41,105 L40,105 L40,106 L38,106 L38,107 L37,107 L37,108 L35,108 L35,109 L33,109 L33,110 L32,110 L32,111 L29,111 L29,112 L27,112 L27,113 L25,113 L25,114 L21,114 L21,115 L17,115 L17,116 L13,116 L13,145 L14,145 L14,146 L15,146 L15,144 L16,144 L16,143 L17,143 L17,142 L18,142 L18,141 L19,141 L19,140 L20,140 L20,139 L21,139 L21,138 L22,138 L22,137 L23,137 L23,136 L25,136 L25,135 L26,135 L26,134 L28,134 L28,133 L30,133 L30,132 L33,132 L33,131 L36,131 L36,132 L38,132 L38,135 L39,135 L39,140 L38,140 L38,145 L37,145 L37,148 L36,148 L36,150 L35,150 L35,151 L34,151 L34,153 L33,153 L33,154 L32,154 L32,155 L31,155 L31,156 L30,156 L30,157 L29,157 L29,158 L28,158 L28,159 L27,159 L27,160 L26,160 L26,161 L24,161 L24,162 L23,162 L23,163 L21,163 L21,164 L19,164 L19,165 L17,165 L17,166 L15,166 L15,167 L16,167 L16,168 L14,168 L14,167 L12,167 L12,175 L11,175 L11,176 L1,176 L1,175 L0,175 L0,167 L-2,167 L-2,166 L-5,166 L-5,165 L-7,165 L-7,164 L-9,164 L-9,163 L-10,163 L-10,162 L-12,162 L-12,161 L-13,161 L-13,160 L-14,160 L-14,159 L-16,159 L-16,158 L-17,158 L-17,157 L-18,157 L-18,156 L-20,156 L-20,153 L-21,153 L-21,152 L-22,152 L-22,151 L-23,151 L-23,149 L-24,149 L-24,147 L-25,147 L-25,144 L-26,144 L-26,137 L-27,137 L-27,136 L-26,136 L-26,133 L-25,133 L-25,132 L-24,132 L-24,131 L-21,131 L-21,132 L-18,132 L-18,133 L-16,133 L-16,134 L-14,134 L-14,135 L-13,135 L-13,136 L-11,136 L-11,137 L-10,137 L-10,138 L-9,138 L-9,139 L-8,139 L-8,140 L-7,140 L-7,141 L-6,141 L-6,142 L-5,142 L-5,143 L-3,143 L-3,145 L-2,145 L-2,147 L-1,147 L-1,117 L0,117 L0,116 L-4,116 L-4,115 L-10,115 L-10,114 L-12,114 L-12,113 L-15,113 L-15,112 L-17,112 L-17,111 L-19,111 L-19,110 L-21,110 L-21,109 L-23,109 L-23,108 L-24,108 L-24,107 L-26,107 L-26,106 L-27,106 L-27,105 L-29,105 L-29,104 L-30,104 L-30,103 L-31,103 L-31,102 L-34,102 L-34,101 L-33,101 L-33,100 L-34,100 L-34,99 L-35,99 L-35,98 L-36,98 L-36,97 L-37,97 L-37,96 L-39,96 L-39,94 L-40,94 L-40,92 L-41,92 L-41,91 L-42,91 L-42,90 L-43,90 L-43,88 L-44,88 L-44,86 L-45,86 L-45,84 L-46,84 L-46,82 L-47,82 L-47,80 L-48,80 L-48,77 L-49,77 L-49,75 L-50,75 L-50,71 L-51,71 L-51,65 L-52,65 L-52,52 L-51,52 L-51,46 L-50,46 L-50,42 L-49,42 L-49,39 L-48,39 L-48,36 L-47,36 L-47,34 L-46,34 L-46,32 L-45,32 L-45,30 L-44,30 L-44,28 L-43,28 L-43,27 L-42,27 L-42,25 L-41,25 L-41,24 L-40,24 L-40,23 L-39,23 L-39,21 L-38,21 L-38,20 L-37,20 L-37,19 L-36,19 L-36,18 L-35,18 L-35,17 L-34,17 L-34,16 L-33,16 L-33,15 L-32,15 L-32,13 L-29,13 L-29,12 L-28,12 L-28,11 L-27,11 L-27,10 L-25,10 L-25,9 L-24,9 L-24,8 L-22,8 L-22,7 L-20,7 L-20,6 L-18,6 L-18,5 L-16,5 L-16,4 L-13,4 L-13,3 L-10,3 L-10,2 L-6,2 L-6,1 L0,1 Z M13,146 L13,147 L14,147 L14,146 Z " transform="translate(294,69)" style="fill: #2E4435;"/><path d="M0,0 L16,0 L16,1 L21,1 L21,2 L24,2 L24,3 L26,3 L26,4 L28,4 L28,5 L30,5 L30,6 L32,6 L32,7 L34,7 L34,8 L35,8 L35,9 L36,9 L36,10 L37,10 L37,11 L39,11 L39,12 L40,12 L40,13 L41,13 L41,14 L42,14 L42,16 L43,16 L43,17 L44,17 L44,18 L45,18 L45,19 L46,19 L46,21 L47,21 L47,23 L48,23 L48,25 L49,25 L49,27 L50,27 L50,29 L51,29 L51,32 L52,32 L52,36 L53,36 L53,55 L52,55 L52,59 L51,59 L51,62 L50,62 L50,65 L49,65 L49,67 L48,67 L48,69 L47,69 L47,70 L46,70 L46,72 L45,72 L45,73 L44,73 L44,74 L43,74 L43,75 L42,75 L42,77 L41,77 L41,76 L40,76 L40,75 L39,75 L39,73 L38,73 L38,72 L37,72 L37,71 L35,71 L35,70 L34,70 L34,69 L33,69 L33,68 L31,68 L31,67 L29,67 L29,66 L27,66 L27,65 L23,65 L23,64 L20,64 L20,65 L18,65 L18,66 L16,66 L16,67 L11,67 L11,68 L4,68 L4,67 L0,67 L0,66 L-2,66 L-2,65 L-4,65 L-4,64 L-8,64 L-8,65 L-11,65 L-11,66 L-14,66 L-14,67 L-16,67 L-16,68 L-17,68 L-17,69 L-19,69 L-19,70 L-20,70 L-20,71 L-21,71 L-21,72 L-22,72 L-22,73 L-23,73 L-23,75 L-24,75 L-24,77 L-25,77 L-25,76 L-26,76 L-26,75 L-27,75 L-27,73 L-28,73 L-28,72 L-29,72 L-29,71 L-30,71 L-30,69 L-31,69 L-31,67 L-32,67 L-32,65 L-33,65 L-33,63 L-34,63 L-34,61 L-35,61 L-35,57 L-36,57 L-36,52 L-37,52 L-37,38 L-36,38 L-36,34 L-35,34 L-35,31 L-34,31 L-34,28 L-33,28 L-33,26 L-32,26 L-32,24 L-31,24 L-31,22 L-30,22 L-30,20 L-29,20 L-29,19 L-28,19 L-28,18 L-27,18 L-27,16 L-26,16 L-26,15 L-25,15 L-25,14 L-24,14 L-24,13 L-23,13 L-23,12 L-22,12 L-22,11 L-21,11 L-21,10 L-19,10 L-19,9 L-18,9 L-18,8 L-17,8 L-17,7 L-15,7 L-15,6 L-13,6 L-13,5 L-11,5 L-11,4 L-9,4 L-9,3 L-7,3 L-7,2 L-4,2 L-4,1 L0,1 Z " transform="translate(393,166)" style="fill: #B9B587;"/><path d="M0,0 L16,0 L16,1 L20,1 L20,2 L23,2 L23,3 L26,3 L26,4 L28,4 L28,5 L30,5 L30,6 L31,6 L31,7 L33,7 L33,8 L34,8 L34,9 L36,9 L36,10 L37,10 L37,11 L38,11 L38,12 L39,12 L39,13 L40,13 L40,14 L41,14 L41,15 L42,15 L42,16 L43,16 L43,17 L44,17 L44,19 L45,19 L45,20 L46,20 L46,22 L47,22 L47,23 L48,23 L48,25 L49,25 L49,27 L50,27 L50,30 L51,30 L51,33 L52,33 L52,37 L53,37 L53,54 L52,54 L52,59 L51,59 L51,61 L50,61 L50,64 L49,64 L49,66 L48,66 L48,68 L47,68 L47,69 L46,69 L46,71 L45,71 L45,72 L44,72 L44,74 L43,74 L43,75 L42,75 L42,76 L41,76 L41,77 L40,77 L40,75 L39,75 L39,74 L38,74 L38,72 L37,72 L37,71 L36,71 L36,70 L35,70 L35,69 L33,69 L33,68 L32,68 L32,67 L30,67 L30,66 L28,66 L28,65 L25,65 L25,64 L18,64 L18,65 L16,65 L16,66 L12,66 L12,67 L4,67 L4,66 L0,66 L0,65 L-2,65 L-2,64 L-9,64 L-9,65 L-12,65 L-12,66 L-14,66 L-14,67 L-16,67 L-16,68 L-17,68 L-17,69 L-18,69 L-18,70 L-20,70 L-20,71 L-21,71 L-21,72 L-22,72 L-22,73 L-23,73 L-23,75 L-24,75 L-24,76 L-26,76 L-26,75 L-27,75 L-27,73 L-28,73 L-28,72 L-29,72 L-29,71 L-30,71 L-30,69 L-31,69 L-31,68 L-32,68 L-32,66 L-33,66 L-33,63 L-34,63 L-34,61 L-35,61 L-35,58 L-36,58 L-36,53 L-37,53 L-37,37 L-36,37 L-36,33 L-35,33 L-35,30 L-34,30 L-34,27 L-33,27 L-33,25 L-32,25 L-32,23 L-31,23 L-31,22 L-30,22 L-30,20 L-29,20 L-29,19 L-28,19 L-28,17 L-27,17 L-27,16 L-26,16 L-26,15 L-25,15 L-25,14 L-24,14 L-24,13 L-23,13 L-23,12 L-22,12 L-22,11 L-21,11 L-21,10 L-20,10 L-20,9 L-18,9 L-18,8 L-17,8 L-17,7 L-15,7 L-15,6 L-14,6 L-14,5 L-12,5 L-12,4 L-10,4 L-10,3 L-7,3 L-7,2 L-4,2 L-4,1 L0,1 Z " transform="translate(191,166)" style="fill: #BAB587;"/><path d="M0,0 L18,0 L18,1 L22,1 L22,2 L25,2 L25,3 L27,3 L27,4 L30,4 L30,5 L31,5 L31,6 L33,6 L33,7 L35,7 L35,8 L36,8 L36,9 L38,9 L38,10 L39,10 L39,11 L40,11 L40,12 L41,12 L41,13 L42,13 L42,14 L43,14 L43,15 L44,15 L44,16 L45,16 L45,17 L46,17 L46,18 L47,18 L47,20 L48,20 L48,21 L49,21 L49,23 L50,23 L50,25 L51,25 L51,27 L52,27 L52,29 L53,29 L53,32 L54,32 L54,35 L55,35 L55,40 L56,40 L56,52 L55,52 L55,58 L54,58 L54,61 L53,61 L53,64 L52,64 L52,66 L51,66 L51,68 L50,68 L50,70 L49,70 L49,72 L48,72 L48,73 L47,73 L47,74 L46,74 L46,76 L45,76 L45,77 L43,77 L43,76 L42,76 L42,75 L41,75 L41,74 L40,74 L40,73 L39,73 L39,72 L38,72 L38,71 L37,71 L37,70 L35,70 L35,69 L36,69 L36,68 L38,68 L38,67 L39,67 L39,65 L40,65 L40,59 L39,59 L39,55 L38,55 L38,50 L37,50 L37,45 L36,45 L36,39 L35,39 L35,33 L34,33 L34,30 L33,30 L33,27 L32,27 L32,25 L31,25 L31,23 L30,23 L30,21 L29,21 L29,20 L28,20 L28,18 L27,18 L27,17 L26,17 L26,16 L25,16 L25,15 L24,15 L24,14 L22,14 L22,13 L21,13 L21,12 L19,12 L19,11 L16,11 L16,10 L12,10 L12,9 L5,9 L5,10 L1,10 L1,11 L-1,11 L-1,12 L-3,12 L-3,13 L-4,13 L-4,14 L-5,14 L-5,15 L-7,15 L-7,16 L-8,16 L-8,17 L-9,17 L-9,19 L-10,19 L-10,20 L-11,20 L-11,21 L-12,21 L-12,23 L-13,23 L-13,25 L-14,25 L-14,28 L-15,28 L-15,30 L-16,30 L-16,35 L-17,35 L-17,41 L-18,41 L-18,47 L-19,47 L-19,51 L-20,51 L-20,55 L-21,55 L-21,59 L-22,59 L-22,66 L-21,66 L-21,67 L-20,67 L-20,68 L-18,68 L-18,69 L-17,69 L-17,70 L-19,70 L-19,71 L-20,71 L-20,72 L-21,72 L-21,73 L-22,73 L-22,74 L-24,74 L-24,75 L-25,75 L-25,77 L-27,77 L-27,75 L-28,75 L-28,74 L-29,74 L-29,72 L-30,72 L-30,71 L-31,71 L-31,69 L-32,69 L-32,67 L-33,67 L-33,65 L-34,65 L-34,63 L-35,63 L-35,60 L-36,60 L-36,56 L-37,56 L-37,37 L-36,37 L-36,33 L-35,33 L-35,30 L-34,30 L-34,28 L-33,28 L-33,26 L-32,26 L-32,24 L-31,24 L-31,22 L-30,22 L-30,20 L-29,20 L-29,19 L-28,19 L-28,18 L-27,18 L-27,16 L-26,16 L-26,15 L-25,15 L-25,14 L-24,14 L-24,13 L-23,13 L-23,12 L-22,12 L-22,11 L-21,11 L-21,10 L-19,10 L-19,9 L-18,9 L-18,8 L-17,8 L-17,7 L-15,7 L-15,6 L-13,6 L-13,5 L-11,5 L-11,4 L-9,4 L-9,3 L-7,3 L-7,2 L-4,2 L-4,1 L0,1 Z " transform="translate(291,81)" style="fill: #B9B687;"/><path d="M0,0 L14,0 L14,1 L17,1 L17,2 L19,2 L19,3 L20,3 L20,4 L21,4 L21,5 L22,5 L22,6 L23,6 L23,7 L24,7 L24,8 L25,8 L25,9 L26,9 L26,11 L27,11 L27,13 L28,13 L28,16 L29,16 L29,34 L28,34 L28,36 L26,36 L26,37 L25,37 L25,38 L24,38 L24,40 L23,40 L23,42 L22,42 L22,43 L21,43 L21,45 L20,45 L20,46 L19,46 L19,47 L18,47 L18,48 L16,48 L16,49 L15,49 L15,50 L12,50 L12,51 L2,51 L2,50 L0,50 L0,49 L-2,49 L-2,48 L-3,48 L-3,47 L-5,47 L-5,46 L-6,46 L-6,44 L-7,44 L-7,43 L-8,43 L-8,42 L-9,42 L-9,40 L-10,40 L-10,37 L-12,37 L-12,36 L-13,36 L-13,35 L-14,35 L-14,32 L-15,32 L-15,25 L-14,25 L-14,14 L-13,14 L-13,11 L-12,11 L-12,9 L-11,9 L-11,8 L-10,8 L-10,6 L-9,6 L-9,5 L-8,5 L-8,4 L-6,4 L-6,3 L-5,3 L-5,2 L-3,2 L-3,1 L0,1 Z " transform="translate(394,177)" style="fill: #304737;"/><path d="M0,0 L1,0 L1,1 L10,1 L10,2 L13,2 L13,3 L15,3 L15,4 L17,4 L17,5 L19,5 L19,6 L20,6 L20,7 L21,7 L21,8 L22,8 L22,9 L23,9 L23,10 L24,10 L24,12 L25,12 L25,14 L26,14 L26,16 L27,16 L27,19 L28,19 L28,32 L27,32 L27,35 L26,35 L26,37 L25,37 L25,38 L24,38 L24,40 L23,40 L23,41 L22,41 L22,42 L21,42 L21,43 L20,43 L20,44 L19,44 L19,45 L17,45 L17,46 L15,46 L15,47 L13,47 L13,48 L10,48 L10,49 L0,49 L0,48 L-2,48 L-2,49 L-3,49 L-3,47 L-5,47 L-5,46 L-7,46 L-7,45 L-8,45 L-8,44 L-10,44 L-10,43 L-11,43 L-11,42 L-12,42 L-12,41 L-13,41 L-13,39 L-14,39 L-14,38 L-15,38 L-15,36 L-16,36 L-16,34 L-17,34 L-17,31 L-18,31 L-18,26 L-19,26 L-19,25 L-18,25 L-18,23 L-19,23 L-19,22 L-18,22 L-18,20 L-17,20 L-17,16 L-16,16 L-16,14 L-15,14 L-15,13 L-16,13 L-16,12 L-14,12 L-14,11 L-13,11 L-13,10 L-12,10 L-12,8 L-11,8 L-11,7 L-10,7 L-10,6 L-8,6 L-8,5 L-7,5 L-7,3 L-6,3 L-6,4 L-5,4 L-5,3 L-3,3 L-3,2 L-1,2 L-1,1 L0,1 Z " transform="translate(295,254)" style="fill: #2D4436;"/><path d="M0,0 L5,0 L5,1 L10,1 L10,2 L12,2 L12,3 L14,3 L14,4 L16,4 L16,5 L17,5 L17,6 L18,6 L18,7 L19,7 L19,9 L20,9 L20,10 L21,10 L21,12 L22,12 L22,15 L23,15 L23,25 L24,25 L24,33 L23,33 L23,36 L22,36 L22,37 L21,37 L21,38 L20,38 L20,39 L19,39 L19,41 L18,41 L18,43 L17,43 L17,44 L16,44 L16,45 L15,45 L15,46 L14,46 L14,47 L13,47 L13,48 L12,48 L12,49 L10,49 L10,50 L8,50 L8,51 L-2,51 L-2,50 L-5,50 L-5,49 L-6,49 L-6,48 L-8,48 L-8,47 L-9,47 L-9,46 L-10,46 L-10,45 L-11,45 L-11,43 L-12,43 L-12,42 L-13,42 L-13,39 L-14,39 L-14,38 L-15,38 L-15,37 L-16,37 L-16,36 L-17,36 L-17,34 L-18,34 L-18,18 L-17,18 L-17,14 L-16,14 L-16,11 L-15,11 L-15,10 L-14,10 L-14,8 L-13,8 L-13,7 L-12,7 L-12,6 L-11,6 L-11,5 L-10,5 L-10,4 L-8,4 L-8,3 L-7,3 L-7,2 L-4,2 L-4,1 L0,1 Z " transform="translate(196,176)" style="fill: #304738;"/><path d="M0,0 L1,0 L1,1 L2,1 L2,4 L3,4 L3,18 L4,18 L4,25 L5,25 L5,26 L4,26 L4,32 L5,32 L5,48 L-4,48 L-4,42 L-5,42 L-5,41 L-6,41 L-6,40 L-5,40 L-5,30 L-6,30 L-6,19 L-7,19 L-7,22 L-8,22 L-8,24 L-9,24 L-9,27 L-10,27 L-10,30 L-11,30 L-11,32 L-12,32 L-12,35 L-13,35 L-13,38 L-14,38 L-14,40 L-15,40 L-15,42 L-24,42 L-24,41 L-25,41 L-25,39 L-26,39 L-26,36 L-27,36 L-27,35 L-28,35 L-28,31 L-31,31 L-31,30 L-29,30 L-29,28 L-30,28 L-30,26 L-31,26 L-31,23 L-32,23 L-32,20 L-33,20 L-33,25 L-34,25 L-34,39 L-35,39 L-35,48 L-36,48 L-36,49 L-40,49 L-40,48 L-45,48 L-45,39 L-44,39 L-44,25 L-43,25 L-43,10 L-42,10 L-42,9 L-43,9 L-43,8 L-42,8 L-42,2 L-41,2 L-41,1 L-31,1 L-31,2 L-30,2 L-30,1 L-29,1 L-29,3 L-30,3 L-30,4 L-29,4 L-29,6 L-28,6 L-28,9 L-27,9 L-27,12 L-26,12 L-26,15 L-25,15 L-25,17 L-24,17 L-24,20 L-23,20 L-23,23 L-22,23 L-22,25 L-21,25 L-21,28 L-20,28 L-20,30 L-19,30 L-19,27 L-18,27 L-18,24 L-17,24 L-17,21 L-16,21 L-16,19 L-15,19 L-15,15 L-14,15 L-14,13 L-13,13 L-13,10 L-12,10 L-12,8 L-11,8 L-11,5 L-10,5 L-10,2 L-9,2 L-9,1 L0,1 Z " transform="translate(224,464)" style="fill: #283D30;"/><path d="M0,0 L22,0 L22,1 L25,1 L25,2 L27,2 L27,3 L28,3 L28,4 L29,4 L29,5 L30,5 L30,6 L32,6 L32,7 L31,7 L31,8 L32,8 L32,12 L33,12 L33,18 L32,18 L32,22 L31,22 L31,23 L32,23 L32,24 L30,24 L30,25 L29,25 L29,26 L28,26 L28,27 L27,27 L27,28 L25,28 L25,30 L26,30 L26,32 L27,32 L27,34 L28,34 L28,35 L29,35 L29,37 L30,37 L30,39 L31,39 L31,41 L32,41 L32,42 L33,42 L33,44 L34,44 L34,47 L24,47 L24,46 L23,46 L23,45 L22,45 L22,43 L21,43 L21,41 L20,41 L20,39 L19,39 L19,37 L18,37 L18,36 L17,36 L17,34 L16,34 L16,32 L15,32 L15,31 L13,31 L13,30 L10,30 L10,45 L11,45 L11,46 L10,46 L10,47 L8,47 L8,48 L2,48 L2,47 L0,47 Z M10,9 L10,21 L20,21 L20,20 L21,20 L21,19 L22,19 L22,17 L23,17 L23,14 L22,14 L22,11 L21,11 L21,10 L19,10 L19,9 Z " transform="translate(387,465)" style="fill: #283D30;"/><path d="M0,0 L1,0 L1,1 L11,1 L11,2 L12,2 L12,5 L13,5 L13,8 L14,8 L14,11 L15,11 L15,14 L16,14 L16,17 L17,17 L17,20 L18,20 L18,23 L19,23 L19,26 L20,26 L20,29 L21,29 L21,32 L22,32 L22,35 L23,35 L23,38 L24,38 L24,41 L25,41 L25,43 L26,43 L26,48 L17,48 L17,47 L16,47 L16,44 L15,44 L15,42 L14,42 L14,38 L-3,38 L-3,39 L-4,39 L-4,43 L-5,43 L-5,46 L-6,46 L-6,48 L-16,48 L-16,47 L-17,47 L-17,46 L-16,46 L-16,45 L-15,45 L-15,42 L-14,42 L-14,39 L-13,39 L-13,36 L-12,36 L-12,33 L-11,33 L-11,30 L-10,30 L-10,28 L-9,28 L-9,25 L-8,25 L-8,22 L-7,22 L-7,19 L-6,19 L-6,16 L-5,16 L-5,13 L-4,13 L-4,12 L-5,12 L-5,11 L-4,11 L-4,10 L-3,10 L-3,8 L-2,8 L-2,5 L-1,5 L-1,2 L0,2 Z M5,13 L5,16 L4,16 L4,19 L3,19 L3,22 L2,22 L2,24 L1,24 L1,27 L0,27 L0,29 L11,29 L11,28 L10,28 L10,26 L9,26 L9,24 L8,24 L8,20 L7,20 L7,17 L6,17 L6,13 Z " transform="translate(146,464)" style="fill: #283D30;"/><path d="M0,0 L1,0 L1,1 L24,1 L24,9 L23,9 L23,10 L6,10 L6,12 L5,12 L5,13 L6,13 L6,14 L5,14 L5,19 L20,19 L20,20 L22,20 L22,29 L19,29 L19,30 L18,30 L18,29 L5,29 L5,39 L24,39 L24,48 L-5,48 L-5,2 L-6,2 L-6,1 L0,1 Z " transform="translate(475,464)" style="fill: #283E31;"/><path d="M0,0 L28,0 L28,9 L10,9 L10,18 L25,18 L25,19 L26,19 L26,23 L27,23 L27,22 L28,22 L28,24 L27,24 L27,26 L26,26 L26,28 L18,28 L18,29 L17,29 L17,28 L10,28 L10,38 L14,38 L14,37 L15,37 L15,38 L25,38 L25,37 L26,37 L26,38 L28,38 L28,39 L29,39 L29,47 L0,47 Z " transform="translate(431,465)" style="fill: #2D4436;"/><path d="M0,0 L8,0 L8,1 L12,1 L12,2 L16,2 L16,3 L18,3 L18,4 L20,4 L20,5 L22,5 L22,6 L23,6 L23,7 L25,7 L25,8 L26,8 L26,9 L27,9 L27,10 L28,10 L28,11 L29,11 L29,12 L30,12 L30,14 L31,14 L31,15 L32,15 L32,16 L31,16 L31,17 L29,17 L29,18 L28,18 L28,19 L26,19 L26,20 L24,20 L24,21 L22,21 L22,22 L19,22 L19,23 L16,23 L16,24 L10,24 L10,25 L-3,25 L-3,24 L-7,24 L-7,23 L-11,23 L-11,22 L-13,22 L-13,21 L-15,21 L-15,20 L-17,20 L-17,19 L-19,19 L-19,18 L-21,18 L-21,17 L-22,17 L-22,16 L-23,16 L-23,14 L-22,14 L-22,12 L-21,12 L-21,11 L-20,11 L-20,10 L-19,10 L-19,9 L-18,9 L-18,8 L-17,8 L-17,7 L-15,7 L-15,6 L-14,6 L-14,5 L-12,5 L-12,4 L-10,4 L-10,3 L-8,3 L-8,2 L-4,2 L-4,1 L0,1 Z " transform="translate(296,149)" style="fill: #F1D5B3;"/><path d="M0,0 L28,0 L28,1 L29,1 L29,9 L10,9 L10,20 L26,20 L26,21 L27,21 L27,23 L28,23 L28,24 L27,24 L27,29 L10,29 L10,41 L11,41 L11,42 L10,42 L10,43 L11,43 L11,44 L10,44 L10,47 L8,47 L8,49 L7,49 L7,48 L3,48 L3,47 L0,47 Z " transform="translate(101,465)" style="fill: #283E31;"/><path d="M0,0 L1,0 L1,1 L3,1 L3,2 L2,2 L2,5 L1,5 L1,6 L0,6 L0,8 L-1,8 L-1,10 L-2,10 L-2,12 L-3,12 L-3,13 L-4,13 L-4,15 L-5,15 L-5,17 L-6,17 L-6,19 L-7,19 L-7,21 L-8,21 L-8,22 L-9,22 L-9,24 L-10,24 L-10,26 L-11,26 L-11,28 L-12,28 L-12,30 L-13,30 L-13,40 L-12,40 L-12,41 L-13,41 L-13,47 L-12,47 L-12,48 L-15,48 L-15,49 L-21,49 L-21,48 L-23,48 L-23,49 L-24,49 L-24,47 L-23,47 L-23,30 L-24,30 L-24,28 L-25,28 L-25,26 L-26,26 L-26,25 L-28,25 L-28,24 L-27,24 L-27,23 L-28,23 L-28,21 L-29,21 L-29,19 L-30,19 L-30,18 L-31,18 L-31,16 L-32,16 L-32,14 L-33,14 L-33,12 L-34,12 L-34,10 L-35,10 L-35,9 L-36,9 L-36,7 L-37,7 L-37,5 L-38,5 L-38,1 L-28,1 L-28,3 L-27,3 L-27,5 L-26,5 L-26,7 L-25,7 L-25,9 L-24,9 L-24,11 L-23,11 L-23,13 L-22,13 L-22,15 L-21,15 L-21,16 L-20,16 L-20,18 L-19,18 L-19,20 L-17,20 L-17,18 L-16,18 L-16,16 L-15,16 L-15,14 L-14,14 L-14,12 L-13,12 L-13,10 L-12,10 L-12,8 L-11,8 L-11,6 L-10,6 L-10,5 L-11,5 L-11,4 L-9,4 L-9,3 L-8,3 L-8,1 L0,1 Z " transform="translate(324,464)" style="fill: #273B2F;"/><path d="M0,0 L35,0 L35,9 L22,9 L22,20 L23,20 L23,21 L22,21 L22,47 L20,47 L20,48 L14,48 L14,47 L12,47 L12,14 L11,14 L11,13 L12,13 L12,9 L7,9 L7,10 L6,10 L6,9 L-1,9 L-1,8 L-2,8 L-2,7 L-1,7 L-1,1 L0,1 Z " transform="translate(344,465)" style="fill: #283E31;"/><path d="M0,0 L2,0 L2,1 L3,1 L3,2 L4,2 L4,3 L5,3 L5,4 L7,4 L7,5 L8,5 L8,6 L9,6 L9,7 L11,7 L11,19 L10,19 L10,21 L9,21 L9,23 L8,23 L8,25 L7,25 L7,26 L6,26 L6,28 L5,28 L5,29 L4,29 L4,30 L2,30 L2,31 L0,31 L0,32 L-8,32 L-8,31 L-10,31 L-10,30 L-12,30 L-12,29 L-13,29 L-13,28 L-14,28 L-14,27 L-15,27 L-15,25 L-16,25 L-16,24 L-17,24 L-17,22 L-18,22 L-18,19 L-19,19 L-19,9 L-13,9 L-13,8 L-10,8 L-10,7 L-8,7 L-8,6 L-6,6 L-6,5 L-5,5 L-5,4 L-3,4 L-3,3 L-2,3 L-2,2 L-1,2 L-1,1 L0,1 Z " transform="translate(304,109)" style="fill: #F1D5B4;"/><path d="M0,0 L10,0 L10,1 L11,1 L11,2 L10,2 L10,38 L28,38 L28,39 L29,39 L29,47 L-1,47 L-1,46 L0,46 L0,7 L-1,7 L-1,6 L0,6 Z " transform="translate(261,465)" style="fill: #2D4336;"/><path d="M0,0 L9,0 L9,47 L7,47 L7,48 L1,48 L1,47 L0,47 L0,46 L-1,46 L-1,43 L-2,43 L-2,42 L-1,42 L-1,34 L-2,34 L-2,33 L-1,33 L-1,1 L0,1 Z " transform="translate(240,465)" style="fill: #2A3D32;"/><path d="M0,0 L1,0 L1,3 L2,3 L2,10 L17,10 L17,11 L18,11 L18,15 L19,15 L19,14 L20,14 L20,16 L19,16 L19,18 L18,18 L18,20 L10,20 L10,21 L9,21 L9,20 L2,20 L2,30 L6,30 L6,29 L7,29 L7,30 L17,30 L17,29 L18,29 L18,30 L20,30 L20,31 L21,31 L21,39 L-7,39 L-7,38 L19,38 L19,32 L1,32 L1,31 L0,31 L0,19 L1,19 L1,18 L17,18 L17,12 L1,12 L1,11 L0,11 Z " transform="translate(439,473)" style="fill: #15251B;"/><path d="M0,0 L1,0 L1,1 L2,1 L2,2 L1,2 L1,38 L19,38 L19,39 L20,39 L20,47 L-10,47 L-10,46 L-9,46 L-9,45 L-8,45 L-8,46 L18,46 L18,40 L0,40 L0,39 L-1,39 L-1,1 L0,1 Z " transform="translate(270,465)" style="fill: #122418;"/><path d="M0,0 L1,0 L1,3 L0,3 Z " transform="translate(364,280)" style="fill: #000000;"/><path d="M0,0 L1,0 L1,2 L0,2 Z " transform="translate(352,514)" style="fill: #000000;"/><path d="M0,0 L1,0 L1,2 L0,2 Z " transform="translate(109,514)" style="fill: #000000;"/><path d="M0,0 L1,0 L1,2 L0,2 Z " transform="translate(353,509)" style="fill: #000000;"/><path d="M0,0 L1,0 L1,2 L0,2 Z " transform="translate(429,505)" style="fill: #000000;"/><path d="M0,0 L1,0 L1,2 L0,2 Z " transform="translate(427,498)" style="fill: #000000;"/><path d="M0,0 L2,0 L2,1 L0,1 Z " transform="translate(290,482)" style="fill: #000000;"/><path d="M0,0 L1,0 L1,2 L0,2 Z " transform="translate(228,478)" style="fill: #000000;"/><path d="M0,0 L2,0 L2,1 L0,1 Z " transform="translate(427,469)" style="fill: #000000;"/><path d="M0,0 L1,0 L1,2 L0,2 Z " transform="translate(257,468)" style="fill: #000000;"/><path d="M0,0 L1,0 L1,2 L0,2 Z " transform="translate(228,466)" style="fill: #000000;"/><path d="M0,0 L2,0 L2,1 L0,1 Z " transform="translate(374,417)" style="fill: #000000;"/><path d="M0,0 L2,0 L2,1 L0,1 Z " transform="translate(361,416)" style="fill: #000000;"/><path d="M0,0 L2,0 L2,1 L0,1 Z " transform="translate(310,301)" style="fill: #000000;"/><path d="M0,0 L2,0 L2,1 L0,1 Z " transform="translate(324,283)" style="fill: #000000;"/><path d="M0,0 L1,0 L1,2 L0,2 Z " transform="translate(392,279)" style="fill: #000000;"/><path d="M0,0 L1,0 L1,2 L0,2 Z " transform="translate(305,245)" style="fill: #000000;"/><path d="M0,0 L2,0 L2,1 L0,1 Z " transform="translate(148,246)" style="fill: #000000;"/><path d="M0,0 L2,0 L2,1 L0,1 Z " transform="translate(282,203)" style="fill: #000000;"/><path d="M0,0 L1,0 L1,2 L0,2 Z " transform="translate(333,181)" style="fill: #000000;"/><path d="M0,0 L1,0 L1,2 L0,2 Z " transform="translate(144,176)" style="fill: #000000;"/><path d="M0,0 L1,0 L1,2 L0,2 Z " transform="translate(360,169)" style="fill: #000000;"/><path d="M0,0 L1,0 L1,2 L0,2 Z " transform="translate(221,157)" style="fill: #000000;"/><path d="M0,0 L2,0 L2,1 L0,1 Z " transform="translate(177,155)" style="fill: #000000;"/><path d="M0,0 L2,0 L2,1 L0,1 Z " transform="translate(196,153)" style="fill: #000000;"/><path d="M0,0 L1,0 L1,2 L0,2 Z " transform="translate(330,75)" style="fill: #000000;"/><path d="M0,0 L1,0 L1,1 L0,1 Z " transform="translate(352,519)" style="fill: #000000;"/><path d="M0,0 L1,0 L1,1 L0,1 Z " transform="translate(106,519)" style="fill: #000000;"/><path d="M0,0 L1,0 L1,1 L0,1 Z " transform="translate(304,518)" style="fill: #000000;"/><path d="M0,0 L1,0 L1,1 L0,1 Z " transform="translate(359,517)" style="fill: #000000;"/><path d="M0,0 L1,0 L1,1 L0,1 Z " transform="translate(297,516)" style="fill: #000000;"/><path d="M0,0 L1,0 L1,1 L0,1 Z " transform="translate(245,516)" style="fill: #000000;"/><path d="M0,0 L1,0 L1,1 L0,1 Z " transform="translate(357,515)" style="fill: #000000;"/><path d="M0,0 L1,0 L1,1 L0,1 Z " transform="translate(303,515)" style="fill: #000000;"/><path d="M0,0 L1,0 L1,1 L0,1 Z " transform="translate(106,515)" style="fill: #000000;"/><path d="M0,0 L1,0 L1,1 L0,1 Z " transform="translate(398,512)" style="fill: #000000;"/><path d="M0,0 L1,0 L1,1 L0,1 Z " transform="translate(367,512)" style="fill: #000000;"/><path d="M0,0 L1,0 L1,1 L0,1 Z " transform="translate(353,512)" style="fill: #000000;"/><path d="M0,0 L1,0 L1,1 L0,1 Z " transform="translate(464,511)" style="fill: #000000;"/><path d="M0,0 L1,0 L1,1 L0,1 Z " transform="translate(461,511)" style="fill: #000000;"/><path d="M0,0 L1,0 L1,1 L0,1 Z " transform="translate(423,511)" style="fill: #000000;"/><path d="M0,0 L1,0 L1,1 L0,1 Z " transform="translate(403,511)" style="fill: #000000;"/><path d="M0,0 L1,0 L1,1 L0,1 Z " transform="translate(400,511)" style="fill: #000000;"/><path d="M0,0 L1,0 L1,1 L0,1 Z " transform="translate(233,511)" style="fill: #000000;"/><path d="M0,0 L1,0 L1,1 L0,1 Z " transform="translate(176,511)" style="fill: #000000;"/><path d="M0,0 L1,0 L1,1 L0,1 Z " transform="translate(467,510)" style="fill: #000000;"/><path d="M0,0 L1,0 L1,1 L0,1 Z " transform="translate(429,509)" style="fill: #000000;"/><path d="M0,0 L1,0 L1,1 L0,1 Z " transform="translate(424,509)" style="fill: #000000;"/><path d="M0,0 L1,0 L1,1 L0,1 Z " transform="translate(194,509)" style="fill: #000000;"/><path d="M0,0 L1,0 L1,1 L0,1 Z " transform="translate(354,508)" style="fill: #000000;"/><path d="M0,0 L1,0 L1,1 L0,1 Z " transform="translate(195,508)" style="fill: #000000;"/><path d="M0,0 L1,0 L1,1 L0,1 Z " transform="translate(406,507)" style="fill: #000000;"/><path d="M0,0 L1,0 L1,1 L0,1 Z " transform="translate(398,507)" style="fill: #000000;"/><path d="M0,0 L1,0 L1,1 L0,1 Z " transform="translate(385,507)" style="fill: #000000;"/><path d="M0,0 L1,0 L1,1 L0,1 Z " transform="translate(255,507)" style="fill: #000000;"/><path d="M0,0 L1,0 L1,1 L0,1 Z " transform="translate(208,507)" style="fill: #000000;"/><path d="M0,0 L1,0 L1,1 L0,1 Z " transform="translate(205,507)" style="fill: #000000;"/><path d="M0,0 L1,0 L1,1 L0,1 Z " transform="translate(202,507)" style="fill: #000000;"/><path d="M0,0 L1,0 L1,1 L0,1 Z " transform="translate(177,507)" style="fill: #000000;"/><path d="M0,0 L1,0 L1,1 L0,1 Z " transform="translate(97,507)" style="fill: #000000;"/><path d="M0,0 L1,0 L1,1 L0,1 Z " transform="translate(502,506)" style="fill: #000000;"/><path d="M0,0 L1,0 L1,1 L0,1 Z " transform="translate(254,506)" style="fill: #000000;"/><path d="M0,0 L1,0 L1,1 L0,1 Z " transform="translate(174,505)" style="fill: #000000;"/><path d="M0,0 L1,0 L1,1 L0,1 Z " transform="translate(235,504)" style="fill: #000000;"/><path d="M0,0 L1,0 L1,1 L0,1 Z " transform="translate(291,503)" style="fill: #000000;"/><path d="M0,0 L1,0 L1,1 L0,1 Z " transform="translate(129,503)" style="fill: #000000;"/><path d="M0,0 L1,0 L1,1 L0,1 Z " transform="translate(297,502)" style="fill: #000000;"/><path d="M0,0 L1,0 L1,1 L0,1 Z " transform="translate(230,502)" style="fill: #000000;"/><path d="M0,0 L1,0 L1,1 L0,1 Z " transform="translate(217,502)" style="fill: #000000;"/><path d="M0,0 L1,0 L1,1 L0,1 Z " transform="translate(195,502)" style="fill: #000000;"/><path d="M0,0 L1,0 L1,1 L0,1 Z " transform="translate(178,501)" style="fill: #000000;"/><path d="M0,0 L1,0 L1,1 L0,1 Z " transform="translate(458,500)" style="fill: #000000;"/><path d="M0,0 L1,0 L1,1 L0,1 Z " transform="translate(213,500)" style="fill: #000000;"/><path d="M0,0 L1,0 L1,1 L0,1 Z " transform="translate(192,500)" style="fill: #000000;"/><path d="M0,0 L1,0 L1,1 L0,1 Z " transform="translate(170,500)" style="fill: #000000;"/><path d="M0,0 L1,0 L1,1 L0,1 Z " transform="translate(498,499)" style="fill: #000000;"/><path d="M0,0 L1,0 L1,1 L0,1 Z " transform="translate(420,499)" style="fill: #000000;"/><path d="M0,0 L1,0 L1,1 L0,1 Z " transform="translate(418,499)" style="fill: #000000;"/><path d="M0,0 L1,0 L1,1 L0,1 Z " transform="translate(280,499)" style="fill: #000000;"/><path d="M0,0 L1,0 L1,1 L0,1 Z " transform="translate(193,499)" style="fill: #000000;"/><path d="M0,0 L1,0 L1,1 L0,1 Z " transform="translate(175,499)" style="fill: #000000;"/><path d="M0,0 L1,0 L1,1 L0,1 Z " transform="translate(131,499)" style="fill: #000000;"/><path d="M0,0 L1,0 L1,1 L0,1 Z " transform="translate(132,498)" style="fill: #000000;"/><path d="M0,0 L1,0 L1,1 L0,1 Z " transform="translate(417,497)" style="fill: #000000;"/><path d="M0,0 L1,0 L1,1 L0,1 Z " transform="translate(295,496)" style="fill: #000000;"/><path d="M0,0 L1,0 L1,1 L0,1 Z " transform="translate(216,496)" style="fill: #000000;"/><path d="M0,0 L1,0 L1,1 L0,1 Z " transform="translate(194,496)" style="fill: #000000;"/><path d="M0,0 L1,0 L1,1 L0,1 Z " transform="translate(178,496)" style="fill: #000000;"/><path d="M0,0 L1,0 L1,1 L0,1 Z " transform="translate(174,496)" style="fill: #000000;"/><path d="M0,0 L1,0 L1,1 L0,1 Z " transform="translate(131,496)" style="fill: #000000;"/><path d="M0,0 L1,0 L1,1 L0,1 Z " transform="translate(500,495)" style="fill: #000000;"/><path d="M0,0 L1,0 L1,1 L0,1 Z " transform="translate(498,495)" style="fill: #000000;"/><path d="M0,0 L1,0 L1,1 L0,1 Z " transform="translate(486,495)" style="fill: #000000;"/><path d="M0,0 L1,0 L1,1 L0,1 Z " transform="translate(215,494)" style="fill: #000000;"/><path d="M0,0 L1,0 L1,1 L0,1 Z " transform="translate(500,493)" style="fill: #000000;"/><path d="M0,0 L1,0 L1,1 L0,1 Z " transform="translate(463,493)" style="fill: #000000;"/><path d="M0,0 L1,0 L1,1 L0,1 Z " transform="translate(416,493)" style="fill: #000000;"/><path d="M0,0 L1,0 L1,1 L0,1 Z " transform="translate(314,493)" style="fill: #000000;"/><path d="M0,0 L1,0 L1,1 L0,1 Z " transform="translate(192,493)" style="fill: #000000;"/><path d="M0,0 L1,0 L1,1 L0,1 Z " transform="translate(354,492)" style="fill: #000000;"/><path d="M0,0 L1,0 L1,1 L0,1 Z " transform="translate(131,492)" style="fill: #000000;"/><path d="M0,0 L1,0 L1,1 L0,1 Z " transform="translate(216,491)" style="fill: #000000;"/><path d="M0,0 L1,0 L1,1 L0,1 Z " transform="translate(135,491)" style="fill: #000000;"/><path d="M0,0 L1,0 L1,1 L0,1 Z " transform="translate(460,490)" style="fill: #000000;"/><path d="M0,0 L1,0 L1,1 L0,1 Z " transform="translate(204,490)" style="fill: #000000;"/><path d="M0,0 L1,0 L1,1 L0,1 Z " transform="translate(152,490)" style="fill: #000000;"/><path d="M0,0 L1,0 L1,1 L0,1 Z " transform="translate(319,489)" style="fill: #000000;"/><path d="M0,0 L1,0 L1,1 L0,1 Z " transform="translate(423,488)" style="fill: #000000;"/><path d="M0,0 L1,0 L1,1 L0,1 Z " transform="translate(503,486)" style="fill: #000000;"/><path d="M0,0 L1,0 L1,1 L0,1 Z " transform="translate(231,485)" style="fill: #000000;"/><path d="M0,0 L1,0 L1,1 L0,1 Z " transform="translate(166,485)" style="fill: #000000;"/><path d="M0,0 L1,0 L1,1 L0,1 Z " transform="translate(136,484)" style="fill: #000000;"/><path d="M0,0 L1,0 L1,1 L0,1 Z " transform="translate(405,483)" style="fill: #000000;"/><path d="M0,0 L1,0 L1,1 L0,1 Z " transform="translate(495,482)" style="fill: #000000;"/><path d="M0,0 L1,0 L1,1 L0,1 Z " transform="translate(492,481)" style="fill: #000000;"/><path d="M0,0 L1,0 L1,1 L0,1 Z " transform="translate(400,481)" style="fill: #000000;"/><path d="M0,0 L1,0 L1,1 L0,1 Z " transform="translate(231,481)" style="fill: #000000;"/><path d="M0,0 L1,0 L1,1 L0,1 Z " transform="translate(488,480)" style="fill: #000000;"/><path d="M0,0 L1,0 L1,1 L0,1 Z " transform="translate(353,480)" style="fill: #000000;"/><path d="M0,0 L1,0 L1,1 L0,1 Z " transform="translate(252,480)" style="fill: #000000;"/><path d="M0,0 L1,0 L1,1 L0,1 Z " transform="translate(137,480)" style="fill: #000000;"/><path d="M0,0 L1,0 L1,1 L0,1 Z " transform="translate(499,479)" style="fill: #000000;"/><path d="M0,0 L1,0 L1,1 L0,1 Z " transform="translate(456,479)" style="fill: #000000;"/><path d="M0,0 L1,0 L1,1 L0,1 Z " transform="translate(402,479)" style="fill: #000000;"/><path d="M0,0 L1,0 L1,1 L0,1 Z " transform="translate(379,479)" style="fill: #000000;"/><path d="M0,0 L1,0 L1,1 L0,1 Z " transform="translate(354,479)" style="fill: #000000;"/><path d="M0,0 L1,0 L1,1 L0,1 Z " transform="translate(349,479)" style="fill: #000000;"/><path d="M0,0 L1,0 L1,1 L0,1 Z " transform="translate(347,479)" style="fill: #000000;"/><path d="M0,0 L1,0 L1,1 L0,1 Z " transform="translate(307,479)" style="fill: #000000;"/><path d="M0,0 L1,0 L1,1 L0,1 Z " transform="translate(139,479)" style="fill: #000000;"/><path d="M0,0 L1,0 L1,1 L0,1 Z " transform="translate(368,478)" style="fill: #000000;"/><path d="M0,0 L1,0 L1,1 L0,1 Z " transform="translate(352,478)" style="fill: #000000;"/><path d="M0,0 L1,0 L1,1 L0,1 Z " transform="translate(465,477)" style="fill: #000000;"/><path d="M0,0 L1,0 L1,1 L0,1 Z " transform="translate(457,477)" style="fill: #000000;"/><path d="M0,0 L1,0 L1,1 L0,1 Z " transform="translate(421,477)" style="fill: #000000;"/><path d="M0,0 L1,0 L1,1 L0,1 Z " transform="translate(375,477)" style="fill: #000000;"/><path d="M0,0 L1,0 L1,1 L0,1 Z " transform="translate(118,477)" style="fill: #000000;"/><path d="M0,0 L1,0 L1,1 L0,1 Z " transform="translate(481,476)" style="fill: #000000;"/><path d="M0,0 L1,0 L1,1 L0,1 Z " transform="translate(442,476)" style="fill: #000000;"/><path d="M0,0 L1,0 L1,1 L0,1 Z " transform="translate(403,476)" style="fill: #000000;"/><path d="M0,0 L1,0 L1,1 L0,1 Z " transform="translate(400,476)" style="fill: #000000;"/><path d="M0,0 L1,0 L1,1 L0,1 Z " transform="translate(382,476)" style="fill: #000000;"/><path d="M0,0 L1,0 L1,1 L0,1 Z " transform="translate(374,476)" style="fill: #000000;"/><path d="M0,0 L1,0 L1,1 L0,1 Z " transform="translate(199,476)" style="fill: #000000;"/><path d="M0,0 L1,0 L1,1 L0,1 Z " transform="translate(166,476)" style="fill: #000000;"/><path d="M0,0 L1,0 L1,1 L0,1 Z " transform="translate(119,476)" style="fill: #000000;"/><path d="M0,0 L1,0 L1,1 L0,1 Z " transform="translate(423,475)" style="fill: #000000;"/><path d="M0,0 L1,0 L1,1 L0,1 Z " transform="translate(381,475)" style="fill: #000000;"/><path d="M0,0 L1,0 L1,1 L0,1 Z " transform="translate(462,474)" style="fill: #000000;"/><path d="M0,0 L1,0 L1,1 L0,1 Z " transform="translate(380,474)" style="fill: #000000;"/><path d="M0,0 L1,0 L1,1 L0,1 Z " transform="translate(323,474)" style="fill: #000000;"/><path d="M0,0 L1,0 L1,1 L0,1 Z " transform="translate(500,473)" style="fill: #000000;"/><path d="M0,0 L1,0 L1,1 L0,1 Z " transform="translate(325,473)" style="fill: #000000;"/><path d="M0,0 L1,0 L1,1 L0,1 Z " transform="translate(179,473)" style="fill: #000000;"/><path d="M0,0 L1,0 L1,1 L0,1 Z " transform="translate(161,473)" style="fill: #000000;"/><path d="M0,0 L1,0 L1,1 L0,1 Z " transform="translate(138,473)" style="fill: #000000;"/><path d="M0,0 L1,0 L1,1 L0,1 Z " transform="translate(428,472)" style="fill: #000000;"/><path d="M0,0 L1,0 L1,1 L0,1 Z " transform="translate(425,472)" style="fill: #000000;"/><path d="M0,0 L1,0 L1,1 L0,1 Z " transform="translate(300,472)" style="fill: #000000;"/><path d="M0,0 L1,0 L1,1 L0,1 Z " transform="translate(162,472)" style="fill: #000000;"/><path d="M0,0 L1,0 L1,1 L0,1 Z " transform="translate(339,471)" style="fill: #000000;"/><path d="M0,0 L1,0 L1,1 L0,1 Z " transform="translate(286,471)" style="fill: #000000;"/><path d="M0,0 L1,0 L1,1 L0,1 Z " transform="translate(236,471)" style="fill: #000000;"/><path d="M0,0 L1,0 L1,1 L0,1 Z " transform="translate(197,471)" style="fill: #000000;"/><path d="M0,0 L1,0 L1,1 L0,1 Z " transform="translate(180,471)" style="fill: #000000;"/><path d="M0,0 L1,0 L1,1 L0,1 Z " transform="translate(468,470)" style="fill: #000000;"/><path d="M0,0 L1,0 L1,1 L0,1 Z " transform="translate(424,469)" style="fill: #000000;"/><path d="M0,0 L1,0 L1,1 L0,1 Z " transform="translate(385,469)" style="fill: #000000;"/><path d="M0,0 L1,0 L1,1 L0,1 Z " transform="translate(282,469)" style="fill: #000000;"/><path d="M0,0 L1,0 L1,1 L0,1 Z " transform="translate(461,468)" style="fill: #000000;"/><path d="M0,0 L1,0 L1,1 L0,1 Z " transform="translate(198,468)" style="fill: #000000;"/><path d="M0,0 L1,0 L1,1 L0,1 Z " transform="translate(500,467)" style="fill: #000000;"/><path d="M0,0 L1,0 L1,1 L0,1 Z " transform="translate(426,467)" style="fill: #000000;"/><path d="M0,0 L1,0 L1,1 L0,1 Z " transform="translate(208,467)" style="fill: #000000;"/><path d="M0,0 L1,0 L1,1 L0,1 Z " transform="translate(302,466)" style="fill: #000000;"/><path d="M0,0 L1,0 L1,1 L0,1 Z " transform="translate(251,466)" style="fill: #000000;"/><path d="M0,0 L1,0 L1,1 L0,1 Z " transform="translate(199,466)" style="fill: #000000;"/><path d="M0,0 L1,0 L1,1 L0,1 Z " transform="translate(135,466)" style="fill: #000000;"/><path d="M0,0 L1,0 L1,1 L0,1 Z " transform="translate(502,465)" style="fill: #000000;"/><path d="M0,0 L1,0 L1,1 L0,1 Z " transform="translate(464,465)" style="fill: #000000;"/><path d="M0,0 L1,0 L1,1 L0,1 Z " transform="translate(181,465)" style="fill: #000000;"/><path d="M0,0 L1,0 L1,1 L0,1 Z " transform="translate(416,464)" style="fill: #000000;"/><path d="M0,0 L1,0 L1,1 L0,1 Z " transform="translate(312,464)" style="fill: #000000;"/><path d="M0,0 L1,0 L1,1 L0,1 Z " transform="translate(280,464)" style="fill: #000000;"/><path d="M0,0 L1,0 L1,1 L0,1 Z " transform="translate(259,464)" style="fill: #000000;"/><path d="M0,0 L1,0 L1,1 L0,1 Z " transform="translate(252,464)" style="fill: #000000;"/><path d="M0,0 L1,0 L1,1 L0,1 Z " transform="translate(134,464)" style="fill: #000000;"/><path d="M0,0 L1,0 L1,1 L0,1 Z " transform="translate(374,436)" style="fill: #000000;"/><path d="M0,0 L1,0 L1,1 L0,1 Z " transform="translate(375,430)" style="fill: #000000;"/><path d="M0,0 L1,0 L1,1 L0,1 Z " transform="translate(228,418)" style="fill: #000000;"/><path d="M0,0 L1,0 L1,1 L0,1 Z " transform="translate(367,417)" style="fill: #000000;"/><path d="M0,0 L1,0 L1,1 L0,1 Z " transform="translate(224,416)" style="fill: #000000;"/><path d="M0,0 L1,0 L1,1 L0,1 Z " transform="translate(357,413)" style="fill: #000000;"/><path d="M0,0 L1,0 L1,1 L0,1 Z " transform="translate(359,412)" style="fill: #000000;"/><path d="M0,0 L1,0 L1,1 L0,1 Z " transform="translate(240,411)" style="fill: #000000;"/><path d="M0,0 L1,0 L1,1 L0,1 Z " transform="translate(352,410)" style="fill: #000000;"/><path d="M0,0 L1,0 L1,1 L0,1 Z " transform="translate(252,410)" style="fill: #000000;"/><path d="M0,0 L1,0 L1,1 L0,1 Z " transform="translate(359,408)" style="fill: #000000;"/><path d="M0,0 L1,0 L1,1 L0,1 Z " transform="translate(357,408)" style="fill: #000000;"/><path d="M0,0 L1,0 L1,1 L0,1 Z " transform="translate(355,408)" style="fill: #000000;"/><path d="M0,0 L1,0 L1,1 L0,1 Z " transform="translate(246,408)" style="fill: #000000;"/><path d="M0,0 L1,0 L1,1 L0,1 Z " transform="translate(258,403)" style="fill: #000000;"/><path d="M0,0 L1,0 L1,1 L0,1 Z " transform="translate(265,385)" style="fill: #000000;"/><path d="M0,0 L1,0 L1,1 L0,1 Z " transform="translate(333,383)" style="fill: #000000;"/><path d="M0,0 L1,0 L1,1 L0,1 Z " transform="translate(266,383)" style="fill: #000000;"/><path d="M0,0 L1,0 L1,1 L0,1 Z " transform="translate(330,382)" style="fill: #000000;"/><path d="M0,0 L1,0 L1,1 L0,1 Z " transform="translate(267,382)" style="fill: #000000;"/><path d="M0,0 L1,0 L1,1 L0,1 Z " transform="translate(332,381)" style="fill: #000000;"/><path d="M0,0 L1,0 L1,1 L0,1 Z " transform="translate(266,380)" style="fill: #000000;"/><path d="M0,0 L1,0 L1,1 L0,1 Z " transform="translate(270,379)" style="fill: #000000;"/><path d="M0,0 L1,0 L1,1 L0,1 Z " transform="translate(268,378)" style="fill: #000000;"/><path d="M0,0 L1,0 L1,1 L0,1 Z " transform="translate(272,368)" style="fill: #000000;"/><path d="M0,0 L1,0 L1,1 L0,1 Z " transform="translate(272,357)" style="fill: #000000;"/><path d="M0,0 L1,0 L1,1 L0,1 Z " transform="translate(264,347)" style="fill: #000000;"/><path d="M0,0 L1,0 L1,1 L0,1 Z " transform="translate(333,345)" style="fill: #000000;"/><path d="M0,0 L1,0 L1,1 L0,1 Z " transform="translate(264,344)" style="fill: #000000;"/><path d="M0,0 L1,0 L1,1 L0,1 Z " transform="translate(335,343)" style="fill: #000000;"/><path d="M0,0 L1,0 L1,1 L0,1 Z " transform="translate(266,338)" style="fill: #000000;"/><path d="M0,0 L1,0 L1,1 L0,1 Z " transform="translate(264,336)" style="fill: #000000;"/><path d="M0,0 L1,0 L1,1 L0,1 Z " transform="translate(264,334)" style="fill: #000000;"/><path d="M0,0 L1,0 L1,1 L0,1 Z " transform="translate(256,332)" style="fill: #000000;"/><path d="M0,0 L1,0 L1,1 L0,1 Z " transform="translate(260,330)" style="fill: #000000;"/><path d="M0,0 L1,0 L1,1 L0,1 Z " transform="translate(253,327)" style="fill: #000000;"/><path d="M0,0 L1,0 L1,1 L0,1 Z " transform="translate(349,326)" style="fill: #000000;"/><path d="M0,0 L1,0 L1,1 L0,1 Z " transform="translate(347,322)" style="fill: #000000;"/><path d="M0,0 L1,0 L1,1 L0,1 Z " transform="translate(357,319)" style="fill: #000000;"/><path d="M0,0 L1,0 L1,1 L0,1 Z " transform="translate(240,319)" style="fill: #000000;"/><path d="M0,0 L1,0 L1,1 L0,1 Z " transform="translate(241,318)" style="fill: #000000;"/><path d="M0,0 L1,0 L1,1 L0,1 Z " transform="translate(231,311)" style="fill: #000000;"/><path d="M0,0 L1,0 L1,1 L0,1 Z " transform="translate(226,311)" style="fill: #000000;"/><path d="M0,0 L1,0 L1,1 L0,1 Z " transform="translate(216,311)" style="fill: #000000;"/><path d="M0,0 L1,0 L1,1 L0,1 Z " transform="translate(203,310)" style="fill: #000000;"/><path d="M0,0 L1,0 L1,1 L0,1 Z " transform="translate(396,309)" style="fill: #000000;"/><path d="M0,0 L1,0 L1,1 L0,1 Z " transform="translate(394,309)" style="fill: #000000;"/><path d="M0,0 L1,0 L1,1 L0,1 Z " transform="translate(380,309)" style="fill: #000000;"/><path d="M0,0 L1,0 L1,1 L0,1 Z " transform="translate(230,309)" style="fill: #000000;"/><path d="M0,0 L1,0 L1,1 L0,1 Z " transform="translate(386,308)" style="fill: #000000;"/><path d="M0,0 L1,0 L1,1 L0,1 Z " transform="translate(235,308)" style="fill: #000000;"/><path d="M0,0 L1,0 L1,1 L0,1 Z " transform="translate(216,308)" style="fill: #000000;"/><path d="M0,0 L1,0 L1,1 L0,1 Z " transform="translate(300,307)" style="fill: #000000;"/><path d="M0,0 L1,0 L1,1 L0,1 Z " transform="translate(288,306)" style="fill: #000000;"/><path d="M0,0 L1,0 L1,1 L0,1 Z " transform="translate(313,305)" style="fill: #000000;"/><path d="M0,0 L1,0 L1,1 L0,1 Z " transform="translate(291,304)" style="fill: #000000;"/><path d="M0,0 L1,0 L1,1 L0,1 Z " transform="translate(288,303)" style="fill: #000000;"/><path d="M0,0 L1,0 L1,1 L0,1 Z " transform="translate(286,302)" style="fill: #000000;"/><path d="M0,0 L1,0 L1,1 L0,1 Z " transform="translate(280,302)" style="fill: #000000;"/><path d="M0,0 L1,0 L1,1 L0,1 Z " transform="translate(412,301)" style="fill: #000000;"/><path d="M0,0 L1,0 L1,1 L0,1 Z " transform="translate(315,301)" style="fill: #000000;"/><path d="M0,0 L1,0 L1,1 L0,1 Z " transform="translate(191,301)" style="fill: #000000;"/><path d="M0,0 L1,0 L1,1 L0,1 Z " transform="translate(409,300)" style="fill: #000000;"/><path d="M0,0 L1,0 L1,1 L0,1 Z " transform="translate(316,300)" style="fill: #000000;"/><path d="M0,0 L1,0 L1,1 L0,1 Z " transform="translate(312,300)" style="fill: #000000;"/><path d="M0,0 L1,0 L1,1 L0,1 Z " transform="translate(415,299)" style="fill: #000000;"/><path d="M0,0 L1,0 L1,1 L0,1 Z " transform="translate(281,299)" style="fill: #000000;"/><path d="M0,0 L1,0 L1,1 L0,1 Z " transform="translate(414,298)" style="fill: #000000;"/><path d="M0,0 L1,0 L1,1 L0,1 Z " transform="translate(329,298)" style="fill: #000000;"/><path d="M0,0 L1,0 L1,1 L0,1 Z " transform="translate(413,297)" style="fill: #000000;"/><path d="M0,0 L1,0 L1,1 L0,1 Z " transform="translate(316,297)" style="fill: #000000;"/><path d="M0,0 L1,0 L1,1 L0,1 Z " transform="translate(337,296)" style="fill: #000000;"/><path d="M0,0 L1,0 L1,1 L0,1 Z " transform="translate(263,296)" style="fill: #000000;"/><path d="M0,0 L1,0 L1,1 L0,1 Z " transform="translate(345,294)" style="fill: #000000;"/><path d="M0,0 L1,0 L1,1 L0,1 Z " transform="translate(180,294)" style="fill: #000000;"/><path d="M0,0 L1,0 L1,1 L0,1 Z " transform="translate(272,293)" style="fill: #000000;"/><path d="M0,0 L1,0 L1,1 L0,1 Z " transform="translate(253,292)" style="fill: #000000;"/><path d="M0,0 L1,0 L1,1 L0,1 Z " transform="translate(181,291)" style="fill: #000000;"/><path d="M0,0 L1,0 L1,1 L0,1 Z " transform="translate(277,290)" style="fill: #000000;"/><path d="M0,0 L1,0 L1,1 L0,1 Z " transform="translate(352,288)" style="fill: #000000;"/><path d="M0,0 L1,0 L1,1 L0,1 Z " transform="translate(325,288)" style="fill: #000000;"/><path d="M0,0 L1,0 L1,1 L0,1 Z " transform="translate(253,288)" style="fill: #000000;"/><path d="M0,0 L1,0 L1,1 L0,1 Z " transform="translate(210,284)" style="fill: #000000;"/><path d="M0,0 L1,0 L1,1 L0,1 Z " transform="translate(176,283)" style="fill: #000000;"/><path d="M0,0 L1,0 L1,1 L0,1 Z " transform="translate(409,282)" style="fill: #000000;"/><path d="M0,0 L1,0 L1,1 L0,1 Z " transform="translate(397,282)" style="fill: #008000;"/><path d="M0,0 L1,0 L1,1 L0,1 Z " transform="translate(326,282)" style="fill: #000000;"/><path d="M0,0 L1,0 L1,1 L0,1 Z " transform="translate(272,282)" style="fill: #000000;"/><path d="M0,0 L1,0 L1,1 L0,1 Z " transform="translate(179,282)" style="fill: #000000;"/><path d="M0,0 L1,0 L1,1 L0,1 Z " transform="translate(325,281)" style="fill: #000000;"/><path d="M0,0 L1,0 L1,1 L0,1 Z " transform="translate(205,281)" style="fill: #000000;"/><path d="M0,0 L1,0 L1,1 L0,1 Z " transform="translate(200,281)" style="fill: #000000;"/><path d="M0,0 L1,0 L1,1 L0,1 Z " transform="translate(324,280)" style="fill: #000000;"/><path d="M0,0 L1,0 L1,1 L0,1 Z " transform="translate(189,280)" style="fill: #000000;"/><path d="M0,0 L1,0 L1,1 L0,1 Z " transform="translate(178,280)" style="fill: #000000;"/><path d="M0,0 L1,0 L1,1 L0,1 Z " transform="translate(273,278)" style="fill: #000000;"/><path d="M0,0 L1,0 L1,1 L0,1 Z " transform="translate(207,278)" style="fill: #000000;"/><path d="M0,0 L1,0 L1,1 L0,1 Z " transform="translate(368,277)" style="fill: #000000;"/><path d="M0,0 L1,0 L1,1 L0,1 Z " transform="translate(324,277)" style="fill: #000000;"/><path d="M0,0 L1,0 L1,1 L0,1 Z " transform="translate(325,276)" style="fill: #000000;"/><path d="M0,0 L1,0 L1,1 L0,1 Z " transform="translate(396,275)" style="fill: #000000;"/><path d="M0,0 L1,0 L1,1 L0,1 Z " transform="translate(203,275)" style="fill: #000000;"/><path d="M0,0 L1,0 L1,1 L0,1 Z " transform="translate(201,275)" style="fill: #000000;"/><path d="M0,0 L1,0 L1,1 L0,1 Z " transform="translate(272,273)" style="fill: #000000;"/><path d="M0,0 L1,0 L1,1 L0,1 Z " transform="translate(226,273)" style="fill: #000000;"/><path d="M0,0 L1,0 L1,1 L0,1 Z " transform="translate(375,272)" style="fill: #000000;"/><path d="M0,0 L1,0 L1,1 L0,1 Z " transform="translate(371,272)" style="fill: #000000;"/><path d="M0,0 L1,0 L1,1 L0,1 Z " transform="translate(326,272)" style="fill: #000000;"/><path d="M0,0 L1,0 L1,1 L0,1 Z " transform="translate(324,272)" style="fill: #000000;"/><path d="M0,0 L1,0 L1,1 L0,1 Z " transform="translate(225,272)" style="fill: #000000;"/><path d="M0,0 L1,0 L1,1 L0,1 Z " transform="translate(324,270)" style="fill: #000000;"/><path d="M0,0 L1,0 L1,1 L0,1 Z " transform="translate(188,270)" style="fill: #000000;"/><path d="M0,0 L1,0 L1,1 L0,1 Z " transform="translate(277,269)" style="fill: #000000;"/><path d="M0,0 L1,0 L1,1 L0,1 Z " transform="translate(415,268)" style="fill: #000000;"/><path d="M0,0 L1,0 L1,1 L0,1 Z " transform="translate(379,268)" style="fill: #000000;"/><path d="M0,0 L1,0 L1,1 L0,1 Z " transform="translate(324,268)" style="fill: #000000;"/><path d="M0,0 L1,0 L1,1 L0,1 Z " transform="translate(183,267)" style="fill: #000000;"/><path d="M0,0 L1,0 L1,1 L0,1 Z " transform="translate(419,266)" style="fill: #000000;"/><path d="M0,0 L1,0 L1,1 L0,1 Z " transform="translate(278,265)" style="fill: #000000;"/><path d="M0,0 L1,0 L1,1 L0,1 Z " transform="translate(176,265)" style="fill: #000000;"/><path d="M0,0 L1,0 L1,1 L0,1 Z " transform="translate(235,263)" style="fill: #000000;"/><path d="M0,0 L1,0 L1,1 L0,1 Z " transform="translate(227,263)" style="fill: #000000;"/><path d="M0,0 L1,0 L1,1 L0,1 Z " transform="translate(369,262)" style="fill: #000000;"/><path d="M0,0 L1,0 L1,1 L0,1 Z " transform="translate(167,262)" style="fill: #000000;"/><path d="M0,0 L1,0 L1,1 L0,1 Z " transform="translate(317,261)" style="fill: #000000;"/><path d="M0,0 L1,0 L1,1 L0,1 Z " transform="translate(363,260)" style="fill: #000000;"/><path d="M0,0 L1,0 L1,1 L0,1 Z " transform="translate(280,259)" style="fill: #000000;"/><path d="M0,0 L1,0 L1,1 L0,1 Z " transform="translate(239,259)" style="fill: #000000;"/><path d="M0,0 L1,0 L1,1 L0,1 Z " transform="translate(319,257)" style="fill: #000000;"/><path d="M0,0 L1,0 L1,1 L0,1 Z " transform="translate(316,257)" style="fill: #000000;"/><path d="M0,0 L1,0 L1,1 L0,1 Z " transform="translate(280,256)" style="fill: #000000;"/><path d="M0,0 L1,0 L1,1 L0,1 Z " transform="translate(239,256)" style="fill: #000000;"/><path d="M0,0 L1,0 L1,1 L0,1 Z " transform="translate(158,255)" style="fill: #000000;"/><path d="M0,0 L1,0 L1,1 L0,1 Z " transform="translate(445,254)" style="fill: #000000;"/><path d="M0,0 L1,0 L1,1 L0,1 Z " transform="translate(246,254)" style="fill: #000000;"/><path d="M0,0 L1,0 L1,1 L0,1 Z " transform="translate(355,252)" style="fill: #000000;"/><path d="M0,0 L1,0 L1,1 L0,1 Z " transform="translate(156,251)" style="fill: #000000;"/><path d="M0,0 L1,0 L1,1 L0,1 Z " transform="translate(152,250)" style="fill: #000000;"/><path d="M0,0 L1,0 L1,1 L0,1 Z " transform="translate(354,248)" style="fill: #000000;"/><path d="M0,0 L1,0 L1,1 L0,1 Z " transform="translate(304,247)" style="fill: #000000;"/><path d="M0,0 L1,0 L1,1 L0,1 Z " transform="translate(153,247)" style="fill: #000000;"/><path d="M0,0 L1,0 L1,1 L0,1 Z " transform="translate(288,244)" style="fill: #000000;"/><path d="M0,0 L1,0 L1,1 L0,1 Z " transform="translate(454,242)" style="fill: #000000;"/><path d="M0,0 L1,0 L1,1 L0,1 Z " transform="translate(451,241)" style="fill: #000000;"/><path d="M0,0 L1,0 L1,1 L0,1 Z " transform="translate(150,241)" style="fill: #000000;"/><path d="M0,0 L1,0 L1,1 L0,1 Z " transform="translate(455,239)" style="fill: #000000;"/><path d="M0,0 L1,0 L1,1 L0,1 Z " transform="translate(349,239)" style="fill: #000000;"/><path d="M0,0 L1,0 L1,1 L0,1 Z " transform="translate(250,238)" style="fill: #000000;"/><path d="M0,0 L1,0 L1,1 L0,1 Z " transform="translate(454,237)" style="fill: #000000;"/><path d="M0,0 L1,0 L1,1 L0,1 Z " transform="translate(346,237)" style="fill: #000000;"/><path d="M0,0 L1,0 L1,1 L0,1 Z " transform="translate(318,237)" style="fill: #000000;"/><path d="M0,0 L1,0 L1,1 L0,1 Z " transform="translate(291,237)" style="fill: #000000;"/><path d="M0,0 L1,0 L1,1 L0,1 Z " transform="translate(316,235)" style="fill: #000000;"/><path d="M0,0 L1,0 L1,1 L0,1 Z " transform="translate(287,235)" style="fill: #000000;"/><path d="M0,0 L1,0 L1,1 L0,1 Z " transform="translate(282,235)" style="fill: #000000;"/><path d="M0,0 L1,0 L1,1 L0,1 Z " transform="translate(346,233)" style="fill: #000000;"/><path d="M0,0 L1,0 L1,1 L0,1 Z " transform="translate(346,231)" style="fill: #000000;"/><path d="M0,0 L1,0 L1,1 L0,1 Z " transform="translate(320,230)" style="fill: #000000;"/><path d="M0,0 L1,0 L1,1 L0,1 Z " transform="translate(273,229)" style="fill: #000000;"/><path d="M0,0 L1,0 L1,1 L0,1 Z " transform="translate(325,227)" style="fill: #000000;"/><path d="M0,0 L1,0 L1,1 L0,1 Z " transform="translate(344,222)" style="fill: #000000;"/><path d="M0,0 L1,0 L1,1 L0,1 Z " transform="translate(267,221)" style="fill: #000000;"/><path d="M0,0 L1,0 L1,1 L0,1 Z " transform="translate(140,221)" style="fill: #000000;"/><path d="M0,0 L1,0 L1,1 L0,1 Z " transform="translate(334,220)" style="fill: #000000;"/><path d="M0,0 L1,0 L1,1 L0,1 Z " transform="translate(331,219)" style="fill: #000000;"/><path d="M0,0 L1,0 L1,1 L0,1 Z " transform="translate(268,219)" style="fill: #000000;"/><path d="M0,0 L1,0 L1,1 L0,1 Z " transform="translate(140,219)" style="fill: #000000;"/><path d="M0,0 L1,0 L1,1 L0,1 Z " transform="translate(136,219)" style="fill: #000000;"/><path d="M0,0 L1,0 L1,1 L0,1 Z " transform="translate(459,218)" style="fill: #000000;"/><path d="M0,0 L1,0 L1,1 L0,1 Z " transform="translate(333,218)" style="fill: #000000;"/><path d="M0,0 L1,0 L1,1 L0,1 Z " transform="translate(269,218)" style="fill: #000000;"/><path d="M0,0 L1,0 L1,1 L0,1 Z " transform="translate(333,214)" style="fill: #000000;"/><path d="M0,0 L1,0 L1,1 L0,1 Z " transform="translate(310,210)" style="fill: #000000;"/><path d="M0,0 L1,0 L1,1 L0,1 Z " transform="translate(139,210)" style="fill: #000000;"/><path d="M0,0 L1,0 L1,1 L0,1 Z " transform="translate(461,208)" style="fill: #000000;"/><path d="M0,0 L1,0 L1,1 L0,1 Z " transform="translate(264,208)" style="fill: #000000;"/><path d="M0,0 L1,0 L1,1 L0,1 Z " transform="translate(312,207)" style="fill: #000000;"/><path d="M0,0 L1,0 L1,1 L0,1 Z " transform="translate(335,202)" style="fill: #000000;"/><path d="M0,0 L1,0 L1,1 L0,1 Z " transform="translate(320,201)" style="fill: #000000;"/><path d="M0,0 L1,0 L1,1 L0,1 Z " transform="translate(278,201)" style="fill: #000000;"/><path d="M0,0 L1,0 L1,1 L0,1 Z " transform="translate(255,201)" style="fill: #000000;"/><path d="M0,0 L1,0 L1,1 L0,1 Z " transform="translate(323,200)" style="fill: #000000;"/><path d="M0,0 L1,0 L1,1 L0,1 Z " transform="translate(268,200)" style="fill: #000000;"/><path d="M0,0 L1,0 L1,1 L0,1 Z " transform="translate(255,191)" style="fill: #000000;"/><path d="M0,0 L1,0 L1,1 L0,1 Z " transform="translate(252,191)" style="fill: #000000;"/><path d="M0,0 L1,0 L1,1 L0,1 Z " transform="translate(454,189)" style="fill: #000000;"/><path d="M0,0 L1,0 L1,1 L0,1 Z " transform="translate(344,189)" style="fill: #000000;"/><path d="M0,0 L1,0 L1,1 L0,1 Z " transform="translate(310,187)" style="fill: #000000;"/><path d="M0,0 L1,0 L1,1 L0,1 Z " transform="translate(288,185)" style="fill: #000000;"/><path d="M0,0 L1,0 L1,1 L0,1 Z " transform="translate(455,184)" style="fill: #000000;"/><path d="M0,0 L1,0 L1,1 L0,1 Z " transform="translate(454,183)" style="fill: #000000;"/><path d="M0,0 L1,0 L1,1 L0,1 Z " transform="translate(451,183)" style="fill: #000000;"/><path d="M0,0 L1,0 L1,1 L0,1 Z " transform="translate(322,182)" style="fill: #000000;"/><path d="M0,0 L1,0 L1,1 L0,1 Z " transform="translate(278,182)" style="fill: #000000;"/><path d="M0,0 L1,0 L1,1 L0,1 Z " transform="translate(335,181)" style="fill: #000000;"/><path d="M0,0 L1,0 L1,1 L0,1 Z " transform="translate(323,181)" style="fill: #000000;"/><path d="M0,0 L1,0 L1,1 L0,1 Z " transform="translate(270,181)" style="fill: #000000;"/><path d="M0,0 L1,0 L1,1 L0,1 Z " transform="translate(451,180)" style="fill: #000000;"/><path d="M0,0 L1,0 L1,1 L0,1 Z " transform="translate(332,180)" style="fill: #000000;"/><path d="M0,0 L1,0 L1,1 L0,1 Z " transform="translate(274,180)" style="fill: #000000;"/><path d="M0,0 L1,0 L1,1 L0,1 Z " transform="translate(144,180)" style="fill: #000000;"/><path d="M0,0 L1,0 L1,1 L0,1 Z " transform="translate(334,178)" style="fill: #000000;"/><path d="M0,0 L1,0 L1,1 L0,1 Z " transform="translate(446,176)" style="fill: #000000;"/><path d="M0,0 L1,0 L1,1 L0,1 Z " transform="translate(354,176)" style="fill: #000000;"/><path d="M0,0 L1,0 L1,1 L0,1 Z " transform="translate(260,175)" style="fill: #000000;"/><path d="M0,0 L1,0 L1,1 L0,1 Z " transform="translate(446,174)" style="fill: #000000;"/><path d="M0,0 L1,0 L1,1 L0,1 Z " transform="translate(338,173)" style="fill: #000000;"/><path d="M0,0 L1,0 L1,1 L0,1 Z " transform="translate(241,173)" style="fill: #000000;"/><path d="M0,0 L1,0 L1,1 L0,1 Z " transform="translate(359,172)" style="fill: #000000;"/><path d="M0,0 L1,0 L1,1 L0,1 Z " transform="translate(442,171)" style="fill: #000000;"/><path d="M0,0 L1,0 L1,1 L0,1 Z " transform="translate(342,171)" style="fill: #000000;"/><path d="M0,0 L1,0 L1,1 L0,1 Z " transform="translate(152,171)" style="fill: #000000;"/><path d="M0,0 L1,0 L1,1 L0,1 Z " transform="translate(241,170)" style="fill: #000000;"/><path d="M0,0 L1,0 L1,1 L0,1 Z " transform="translate(440,169)" style="fill: #000000;"/><path d="M0,0 L1,0 L1,1 L0,1 Z " transform="translate(362,168)" style="fill: #000000;"/><path d="M0,0 L1,0 L1,1 L0,1 Z " transform="translate(242,168)" style="fill: #000000;"/><path d="M0,0 L1,0 L1,1 L0,1 Z " transform="translate(344,167)" style="fill: #000000;"/><path d="M0,0 L1,0 L1,1 L0,1 Z " transform="translate(160,167)" style="fill: #000000;"/><path d="M0,0 L1,0 L1,1 L0,1 Z " transform="translate(362,166)" style="fill: #000000;"/><path d="M0,0 L1,0 L1,1 L0,1 Z " transform="translate(348,164)" style="fill: #000000;"/><path d="M0,0 L1,0 L1,1 L0,1 Z " transform="translate(346,164)" style="fill: #000000;"/><path d="M0,0 L1,0 L1,1 L0,1 Z " transform="translate(234,164)" style="fill: #000000;"/><path d="M0,0 L1,0 L1,1 L0,1 Z " transform="translate(369,163)" style="fill: #000000;"/><path d="M0,0 L1,0 L1,1 L0,1 Z " transform="translate(237,163)" style="fill: #000000;"/><path d="M0,0 L1,0 L1,1 L0,1 Z " transform="translate(160,163)" style="fill: #000000;"/><path d="M0,0 L1,0 L1,1 L0,1 Z " transform="translate(439,162)" style="fill: #000000;"/><path d="M0,0 L1,0 L1,1 L0,1 Z " transform="translate(364,162)" style="fill: #000000;"/><path d="M0,0 L1,0 L1,1 L0,1 Z " transform="translate(235,162)" style="fill: #000000;"/><path d="M0,0 L1,0 L1,1 L0,1 Z " transform="translate(361,161)" style="fill: #000000;"/><path d="M0,0 L1,0 L1,1 L0,1 Z " transform="translate(164,161)" style="fill: #000000;"/><path d="M0,0 L1,0 L1,1 L0,1 Z " transform="translate(438,160)" style="fill: #000000;"/><path d="M0,0 L1,0 L1,1 L0,1 Z " transform="translate(371,160)" style="fill: #000000;"/><path d="M0,0 L1,0 L1,1 L0,1 Z " transform="translate(377,158)" style="fill: #000000;"/><path d="M0,0 L1,0 L1,1 L0,1 Z " transform="translate(223,158)" style="fill: #000000;"/><path d="M0,0 L1,0 L1,1 L0,1 Z " transform="translate(422,157)" style="fill: #000000;"/><path d="M0,0 L1,0 L1,1 L0,1 Z " transform="translate(351,157)" style="fill: #000000;"/><path d="M0,0 L1,0 L1,1 L0,1 Z " transform="translate(219,157)" style="fill: #000000;"/><path d="M0,0 L1,0 L1,1 L0,1 Z " transform="translate(419,156)" style="fill: #000000;"/><path d="M0,0 L1,0 L1,1 L0,1 Z " transform="translate(180,156)" style="fill: #000000;"/><path d="M0,0 L1,0 L1,1 L0,1 Z " transform="translate(421,155)" style="fill: #000000;"/><path d="M0,0 L1,0 L1,1 L0,1 Z " transform="translate(222,155)" style="fill: #000000;"/><path d="M0,0 L1,0 L1,1 L0,1 Z " transform="translate(412,154)" style="fill: #000000;"/><path d="M0,0 L1,0 L1,1 L0,1 Z " transform="translate(219,154)" style="fill: #000000;"/><path d="M0,0 L1,0 L1,1 L0,1 Z " transform="translate(208,154)" style="fill: #000000;"/><path d="M0,0 L1,0 L1,1 L0,1 Z " transform="translate(186,153)" style="fill: #000000;"/><path d="M0,0 L1,0 L1,1 L0,1 Z " transform="translate(177,153)" style="fill: #000000;"/><path d="M0,0 L1,0 L1,1 L0,1 Z " transform="translate(411,152)" style="fill: #000000;"/><path d="M0,0 L1,0 L1,1 L0,1 Z " transform="translate(391,152)" style="fill: #000000;"/><path d="M0,0 L1,0 L1,1 L0,1 Z " transform="translate(389,152)" style="fill: #000000;"/><path d="M0,0 L1,0 L1,1 L0,1 Z " transform="translate(243,149)" style="fill: #000000;"/><path d="M0,0 L1,0 L1,1 L0,1 Z " transform="translate(242,145)" style="fill: #000000;"/><path d="M0,0 L1,0 L1,1 L0,1 Z " transform="translate(357,144)" style="fill: #000000;"/><path d="M0,0 L1,0 L1,1 L0,1 Z " transform="translate(358,143)" style="fill: #000000;"/><path d="M0,0 L1,0 L1,1 L0,1 Z " transform="translate(359,142)" style="fill: #000000;"/><path d="M0,0 L1,0 L1,1 L0,1 Z " transform="translate(240,140)" style="fill: #000000;"/><path d="M0,0 L1,0 L1,1 L0,1 Z " transform="translate(358,139)" style="fill: #000000;"/><path d="M0,0 L1,0 L1,1 L0,1 Z " transform="translate(241,134)" style="fill: #000000;"/><path d="M0,0 L1,0 L1,1 L0,1 Z " transform="translate(358,114)" style="fill: #000000;"/><path d="M0,0 L1,0 L1,1 L0,1 Z " transform="translate(359,111)" style="fill: #000000;"/><path d="M0,0 L1,0 L1,1 L0,1 Z " transform="translate(240,104)" style="fill: #000000;"/><path d="M0,0 L1,0 L1,1 L0,1 Z " transform="translate(245,103)" style="fill: #000000;"/><path d="M0,0 L1,0 L1,1 L0,1 Z " transform="translate(243,97)" style="fill: #000000;"/><path d="M0,0 L1,0 L1,1 L0,1 Z " transform="translate(248,95)" style="fill: #000000;"/><path d="M0,0 L1,0 L1,1 L0,1 Z " transform="translate(350,92)" style="fill: #000000;"/><path d="M0,0 L1,0 L1,1 L0,1 Z " transform="translate(350,90)" style="fill: #000000;"/><path d="M0,0 L1,0 L1,1 L0,1 Z " transform="translate(259,81)" style="fill: #000000;"/><path d="M0,0 L1,0 L1,1 L0,1 Z " transform="translate(257,80)" style="fill: #000000;"/><path d="M0,0 L1,0 L1,1 L0,1 Z " transform="translate(264,79)" style="fill: #000000;"/><path d="M0,0 L1,0 L1,1 L0,1 Z " transform="translate(265,78)" style="fill: #000000;"/><path d="M0,0 L1,0 L1,1 L0,1 Z " transform="translate(273,74)" style="fill: #000000;"/><path d="M0,0 L1,0 L1,1 L0,1 Z " transform="translate(329,73)" style="fill: #000000;"/><path d="M0,0 L1,0 L1,1 L0,1 Z " transform="translate(315,69)" style="fill: #000000;"/><path d="M0,0 L1,0 L1,1 L0,1 Z " transform="translate(288,68)" style="fill: #00FF00;"/><path d="M0,0 L1,0 L1,1 L0,1 Z " transform="translate(316,67)" style="fill: #000000;"/><path d="M0,0 L1,0 L1,1 L0,1 Z " transform="translate(310,67)" style="fill: #000000;"/><path d="M0,0 L1,0 L1,1 L0,1 Z " transform="translate(317,66)" style="fill: #000000;"/><path d="M0,0 L1,0 L1,1 L0,1 Z " transform="translate(313,65)" style="fill: #000000;"/><path d="M0,0 L1,0 L1,1 L0,1 Z " transform="translate(306,65)" style="fill: #000000;"/><path d="M0,0 L1,0 L1,1 L0,1 Z " transform="translate(307,64)" style="fill: #000000;"/></svg>